<?xml version="1.0" encoding="utf-8" standalone="no"?>
<!DOCTYPE svg PUBLIC "-//W3C//DTD SVG 1.1//EN"
  "http://www.w3.org/Graphics/SVG/1.1/DTD/svg11.dtd">
<svg xmlns:xlink="http://www.w3.org/1999/xlink" width="576pt" height="864pt" viewBox="0 0 576 864" xmlns="http://www.w3.org/2000/svg" version="1.1">
 <metadata>
  <rdf:RDF xmlns:dc="http://purl.org/dc/elements/1.1/" xmlns:cc="http://creativecommons.org/ns#" xmlns:rdf="http://www.w3.org/1999/02/22-rdf-syntax-ns#">
   <cc:Work>
    <dc:type rdf:resource="http://purl.org/dc/dcmitype/StillImage"/>
    <dc:date>2023-11-01T02:51:09.982505</dc:date>
    <dc:format>image/svg+xml</dc:format>
    <dc:creator>
     <cc:Agent>
      <dc:title>Matplotlib v3.8.0, https://matplotlib.org/</dc:title>
     </cc:Agent>
    </dc:creator>
   </cc:Work>
  </rdf:RDF>
 </metadata>
 <defs>
  <style type="text/css">*{stroke-linejoin: round; stroke-linecap: butt}</style>
 </defs>
 <g id="figure_1">
  <g id="patch_1">
   <path d="M 0 864 
L 576 864 
L 576 0 
L 0 0 
z
" style="fill: #ffffff"/>
  </g>
  <g id="axes_1">
   <g id="patch_2">
    <path d="M 38.28 829.14 
L 563.451439 829.14 
L 563.451439 24.72 
L 38.28 24.72 
z
" style="fill: #eeeeee"/>
   </g>
   <g id="matplotlib.axis_1">
    <g id="xtick_1">
     <g id="line2d_1">
      <path d="M 75.587861 829.14 
L 75.587861 24.72 
" clip-path="url(#p8963e61d3a)" style="fill: none; stroke-dasharray: 1.85,0.8; stroke-dashoffset: 0; stroke: #ffffff; stroke-width: 0.5"/>
     </g>
     <g id="line2d_2"/>
     <g id="text_1">
      <!-- −2 -->
      <g transform="translate(70.265749 837.913316) scale(0.0694 -0.0694)">
       <defs>
        <path id="DejaVuSans-Bold-2212" d="M 678 2375 
L 4684 2375 
L 4684 1638 
L 678 1638 
L 678 2375 
z
" transform="scale(0.015625)"/>
        <path id="DejaVuSans-Bold-32" d="M 1844 884 
L 3897 884 
L 3897 0 
L 506 0 
L 506 884 
L 2209 2388 
Q 2438 2594 2547 2791 
Q 2656 2988 2656 3200 
Q 2656 3528 2436 3728 
Q 2216 3928 1850 3928 
Q 1569 3928 1234 3808 
Q 900 3688 519 3450 
L 519 4475 
Q 925 4609 1322 4679 
Q 1719 4750 2100 4750 
Q 2938 4750 3402 4381 
Q 3866 4013 3866 3353 
Q 3866 2972 3669 2642 
Q 3472 2313 2841 1759 
L 1844 884 
z
" transform="scale(0.015625)"/>
       </defs>
       <use xlink:href="#DejaVuSans-Bold-2212"/>
       <use xlink:href="#DejaVuSans-Bold-32" x="83.789062"/>
      </g>
     </g>
    </g>
    <g id="xtick_2">
     <g id="line2d_3">
      <path d="M 145.175694 829.14 
L 145.175694 24.72 
" clip-path="url(#p8963e61d3a)" style="fill: none; stroke-dasharray: 1.85,0.8; stroke-dashoffset: 0; stroke: #ffffff; stroke-width: 0.5"/>
     </g>
     <g id="line2d_4"/>
     <g id="text_2">
      <!-- −1 -->
      <g transform="translate(139.853582 837.913316) scale(0.0694 -0.0694)">
       <defs>
        <path id="DejaVuSans-Bold-31" d="M 750 831 
L 1813 831 
L 1813 3847 
L 722 3622 
L 722 4441 
L 1806 4666 
L 2950 4666 
L 2950 831 
L 4013 831 
L 4013 0 
L 750 0 
L 750 831 
z
" transform="scale(0.015625)"/>
       </defs>
       <use xlink:href="#DejaVuSans-Bold-2212"/>
       <use xlink:href="#DejaVuSans-Bold-31" x="83.789062"/>
      </g>
     </g>
    </g>
    <g id="xtick_3">
     <g id="line2d_5">
      <path d="M 214.763528 829.14 
L 214.763528 24.72 
" clip-path="url(#p8963e61d3a)" style="fill: none; stroke-dasharray: 1.85,0.8; stroke-dashoffset: 0; stroke: #ffffff; stroke-width: 0.5"/>
     </g>
     <g id="line2d_6"/>
     <g id="text_3">
      <!-- 0 -->
      <g transform="translate(212.349167 837.913316) scale(0.0694 -0.0694)">
       <defs>
        <path id="DejaVuSans-Bold-30" d="M 2944 2338 
Q 2944 3213 2780 3570 
Q 2616 3928 2228 3928 
Q 1841 3928 1675 3570 
Q 1509 3213 1509 2338 
Q 1509 1453 1675 1090 
Q 1841 728 2228 728 
Q 2613 728 2778 1090 
Q 2944 1453 2944 2338 
z
M 4147 2328 
Q 4147 1169 3647 539 
Q 3147 -91 2228 -91 
Q 1306 -91 806 539 
Q 306 1169 306 2328 
Q 306 3491 806 4120 
Q 1306 4750 2228 4750 
Q 3147 4750 3647 4120 
Q 4147 3491 4147 2328 
z
" transform="scale(0.015625)"/>
       </defs>
       <use xlink:href="#DejaVuSans-Bold-30"/>
      </g>
     </g>
    </g>
    <g id="xtick_4">
     <g id="line2d_7">
      <path d="M 284.351361 829.14 
L 284.351361 24.72 
" clip-path="url(#p8963e61d3a)" style="fill: none; stroke-dasharray: 1.85,0.8; stroke-dashoffset: 0; stroke: #ffffff; stroke-width: 0.5"/>
     </g>
     <g id="line2d_8"/>
     <g id="text_4">
      <!-- 1 -->
      <g transform="translate(281.937 837.913316) scale(0.0694 -0.0694)">
       <use xlink:href="#DejaVuSans-Bold-31"/>
      </g>
     </g>
    </g>
    <g id="xtick_5">
     <g id="line2d_9">
      <path d="M 353.939194 829.14 
L 353.939194 24.72 
" clip-path="url(#p8963e61d3a)" style="fill: none; stroke-dasharray: 1.85,0.8; stroke-dashoffset: 0; stroke: #ffffff; stroke-width: 0.5"/>
     </g>
     <g id="line2d_10"/>
     <g id="text_5">
      <!-- 2 -->
      <g transform="translate(351.524833 837.913316) scale(0.0694 -0.0694)">
       <use xlink:href="#DejaVuSans-Bold-32"/>
      </g>
     </g>
    </g>
    <g id="xtick_6">
     <g id="line2d_11">
      <path d="M 423.527028 829.14 
L 423.527028 24.72 
" clip-path="url(#p8963e61d3a)" style="fill: none; stroke-dasharray: 1.85,0.8; stroke-dashoffset: 0; stroke: #ffffff; stroke-width: 0.5"/>
     </g>
     <g id="line2d_12"/>
     <g id="text_6">
      <!-- 3 -->
      <g transform="translate(421.112667 837.913316) scale(0.0694 -0.0694)">
       <defs>
        <path id="DejaVuSans-Bold-33" d="M 2981 2516 
Q 3453 2394 3698 2092 
Q 3944 1791 3944 1325 
Q 3944 631 3412 270 
Q 2881 -91 1863 -91 
Q 1503 -91 1142 -33 
Q 781 25 428 141 
L 428 1069 
Q 766 900 1098 814 
Q 1431 728 1753 728 
Q 2231 728 2486 893 
Q 2741 1059 2741 1369 
Q 2741 1688 2480 1852 
Q 2219 2016 1709 2016 
L 1228 2016 
L 1228 2791 
L 1734 2791 
Q 2188 2791 2409 2933 
Q 2631 3075 2631 3366 
Q 2631 3634 2415 3781 
Q 2200 3928 1806 3928 
Q 1516 3928 1219 3862 
Q 922 3797 628 3669 
L 628 4550 
Q 984 4650 1334 4700 
Q 1684 4750 2022 4750 
Q 2931 4750 3382 4451 
Q 3834 4153 3834 3553 
Q 3834 3144 3618 2883 
Q 3403 2622 2981 2516 
z
" transform="scale(0.015625)"/>
       </defs>
       <use xlink:href="#DejaVuSans-Bold-33"/>
      </g>
     </g>
    </g>
    <g id="xtick_7">
     <g id="line2d_13">
      <path d="M 493.114861 829.14 
L 493.114861 24.72 
" clip-path="url(#p8963e61d3a)" style="fill: none; stroke-dasharray: 1.85,0.8; stroke-dashoffset: 0; stroke: #ffffff; stroke-width: 0.5"/>
     </g>
     <g id="line2d_14"/>
     <g id="text_7">
      <!-- 4 -->
      <g transform="translate(490.7005 837.913316) scale(0.0694 -0.0694)">
       <defs>
        <path id="DejaVuSans-Bold-34" d="M 2356 3675 
L 1038 1722 
L 2356 1722 
L 2356 3675 
z
M 2156 4666 
L 3494 4666 
L 3494 1722 
L 4159 1722 
L 4159 850 
L 3494 850 
L 3494 0 
L 2356 0 
L 2356 850 
L 288 850 
L 288 1881 
L 2156 4666 
z
" transform="scale(0.015625)"/>
       </defs>
       <use xlink:href="#DejaVuSans-Bold-34"/>
      </g>
     </g>
    </g>
    <g id="xtick_8">
     <g id="line2d_15">
      <path d="M 562.702694 829.14 
L 562.702694 24.72 
" clip-path="url(#p8963e61d3a)" style="fill: none; stroke-dasharray: 1.85,0.8; stroke-dashoffset: 0; stroke: #ffffff; stroke-width: 0.5"/>
     </g>
     <g id="line2d_16"/>
     <g id="text_8">
      <!-- 5 -->
      <g transform="translate(560.288333 837.913316) scale(0.0694 -0.0694)">
       <defs>
        <path id="DejaVuSans-Bold-35" d="M 678 4666 
L 3669 4666 
L 3669 3781 
L 1638 3781 
L 1638 3059 
Q 1775 3097 1914 3117 
Q 2053 3138 2203 3138 
Q 3056 3138 3531 2711 
Q 4006 2284 4006 1522 
Q 4006 766 3489 337 
Q 2972 -91 2053 -91 
Q 1656 -91 1267 -14 
Q 878 63 494 219 
L 494 1166 
Q 875 947 1217 837 
Q 1559 728 1863 728 
Q 2300 728 2551 942 
Q 2803 1156 2803 1522 
Q 2803 1891 2551 2103 
Q 2300 2316 1863 2316 
Q 1603 2316 1309 2248 
Q 1016 2181 678 2041 
L 678 4666 
z
" transform="scale(0.015625)"/>
       </defs>
       <use xlink:href="#DejaVuSans-Bold-35"/>
      </g>
     </g>
    </g>
    <g id="text_9">
     <!-- PC1 -->
     <g transform="translate(291.858256 849.686117) scale(0.0833 -0.0833)">
      <defs>
       <path id="DejaVuSans-Bold-50" d="M 588 4666 
L 2584 4666 
Q 3475 4666 3951 4270 
Q 4428 3875 4428 3144 
Q 4428 2409 3951 2014 
Q 3475 1619 2584 1619 
L 1791 1619 
L 1791 0 
L 588 0 
L 588 4666 
z
M 1791 3794 
L 1791 2491 
L 2456 2491 
Q 2806 2491 2997 2661 
Q 3188 2831 3188 3144 
Q 3188 3456 2997 3625 
Q 2806 3794 2456 3794 
L 1791 3794 
z
" transform="scale(0.015625)"/>
       <path id="DejaVuSans-Bold-43" d="M 4288 256 
Q 3956 84 3597 -3 
Q 3238 -91 2847 -91 
Q 1681 -91 1000 561 
Q 319 1213 319 2328 
Q 319 3447 1000 4098 
Q 1681 4750 2847 4750 
Q 3238 4750 3597 4662 
Q 3956 4575 4288 4403 
L 4288 3438 
Q 3953 3666 3628 3772 
Q 3303 3878 2944 3878 
Q 2300 3878 1931 3465 
Q 1563 3053 1563 2328 
Q 1563 1606 1931 1193 
Q 2300 781 2944 781 
Q 3303 781 3628 887 
Q 3953 994 4288 1222 
L 4288 256 
z
" transform="scale(0.015625)"/>
      </defs>
      <use xlink:href="#DejaVuSans-Bold-50"/>
      <use xlink:href="#DejaVuSans-Bold-43" x="73.291016"/>
      <use xlink:href="#DejaVuSans-Bold-31" x="146.679688"/>
     </g>
    </g>
   </g>
   <g id="matplotlib.axis_2">
    <g id="ytick_1">
     <g id="line2d_17">
      <path d="M 38.28 739.748245 
L 563.451439 739.748245 
" clip-path="url(#p8963e61d3a)" style="fill: none; stroke-dasharray: 1.85,0.8; stroke-dashoffset: 0; stroke: #ffffff; stroke-width: 0.5"/>
     </g>
     <g id="line2d_18"/>
     <g id="text_10">
      <!-- −1 -->
      <g transform="translate(24.135775 742.384903) scale(0.0694 -0.0694)">
       <use xlink:href="#DejaVuSans-Bold-2212"/>
       <use xlink:href="#DejaVuSans-Bold-31" x="83.789062"/>
      </g>
     </g>
    </g>
    <g id="ytick_2">
     <g id="line2d_19">
      <path d="M 38.28 620.806138 
L 563.451439 620.806138 
" clip-path="url(#p8963e61d3a)" style="fill: none; stroke-dasharray: 1.85,0.8; stroke-dashoffset: 0; stroke: #ffffff; stroke-width: 0.5"/>
     </g>
     <g id="line2d_20"/>
     <g id="text_11">
      <!-- 0 -->
      <g transform="translate(29.951278 623.442796) scale(0.0694 -0.0694)">
       <use xlink:href="#DejaVuSans-Bold-30"/>
      </g>
     </g>
    </g>
    <g id="ytick_3">
     <g id="line2d_21">
      <path d="M 38.28 501.864031 
L 563.451439 501.864031 
" clip-path="url(#p8963e61d3a)" style="fill: none; stroke-dasharray: 1.85,0.8; stroke-dashoffset: 0; stroke: #ffffff; stroke-width: 0.5"/>
     </g>
     <g id="line2d_22"/>
     <g id="text_12">
      <!-- 1 -->
      <g transform="translate(29.951278 504.500689) scale(0.0694 -0.0694)">
       <use xlink:href="#DejaVuSans-Bold-31"/>
      </g>
     </g>
    </g>
    <g id="ytick_4">
     <g id="line2d_23">
      <path d="M 38.28 382.921925 
L 563.451439 382.921925 
" clip-path="url(#p8963e61d3a)" style="fill: none; stroke-dasharray: 1.85,0.8; stroke-dashoffset: 0; stroke: #ffffff; stroke-width: 0.5"/>
     </g>
     <g id="line2d_24"/>
     <g id="text_13">
      <!-- 2 -->
      <g transform="translate(29.951278 385.558582) scale(0.0694 -0.0694)">
       <use xlink:href="#DejaVuSans-Bold-32"/>
      </g>
     </g>
    </g>
    <g id="ytick_5">
     <g id="line2d_25">
      <path d="M 38.28 263.979818 
L 563.451439 263.979818 
" clip-path="url(#p8963e61d3a)" style="fill: none; stroke-dasharray: 1.85,0.8; stroke-dashoffset: 0; stroke: #ffffff; stroke-width: 0.5"/>
     </g>
     <g id="line2d_26"/>
     <g id="text_14">
      <!-- 3 -->
      <g transform="translate(29.951278 266.616476) scale(0.0694 -0.0694)">
       <use xlink:href="#DejaVuSans-Bold-33"/>
      </g>
     </g>
    </g>
    <g id="ytick_6">
     <g id="line2d_27">
      <path d="M 38.28 145.037711 
L 563.451439 145.037711 
" clip-path="url(#p8963e61d3a)" style="fill: none; stroke-dasharray: 1.85,0.8; stroke-dashoffset: 0; stroke: #ffffff; stroke-width: 0.5"/>
     </g>
     <g id="line2d_28"/>
     <g id="text_15">
      <!-- 4 -->
      <g transform="translate(29.951278 147.674369) scale(0.0694 -0.0694)">
       <use xlink:href="#DejaVuSans-Bold-34"/>
      </g>
     </g>
    </g>
    <g id="ytick_7">
     <g id="line2d_29">
      <path d="M 38.28 26.095604 
L 563.451439 26.095604 
" clip-path="url(#p8963e61d3a)" style="fill: none; stroke-dasharray: 1.85,0.8; stroke-dashoffset: 0; stroke: #ffffff; stroke-width: 0.5"/>
     </g>
     <g id="line2d_30"/>
     <g id="text_16">
      <!-- 5 -->
      <g transform="translate(29.951278 28.732262) scale(0.0694 -0.0694)">
       <use xlink:href="#DejaVuSans-Bold-35"/>
      </g>
     </g>
    </g>
    <g id="text_17">
     <!-- PC2 -->
     <g transform="translate(18.403395 435.937463) rotate(-90) scale(0.0833 -0.0833)">
      <use xlink:href="#DejaVuSans-Bold-50"/>
      <use xlink:href="#DejaVuSans-Bold-43" x="73.291016"/>
      <use xlink:href="#DejaVuSans-Bold-32" x="146.679688"/>
     </g>
    </g>
   </g>
   <g id="PathCollection_1">
    <path d="M 121.919975 648.167605 
C 122.698613 648.167605 123.445465 647.858249 123.996045 647.307669 
C 124.546625 646.757089 124.855981 646.010238 124.855981 645.2316 
C 124.855981 644.452962 124.546625 643.70611 123.996045 643.15553 
C 123.445465 642.60495 122.698613 642.295594 121.919975 642.295594 
C 121.141337 642.295594 120.394486 642.60495 119.843906 643.15553 
C 119.293325 643.70611 118.983969 644.452962 118.983969 645.2316 
C 118.983969 646.010238 119.293325 646.757089 119.843906 647.307669 
C 120.394486 647.858249 121.141337 648.167605 121.919975 648.167605 
z
" clip-path="url(#p8963e61d3a)" style="fill: #b0b2b8; stroke: #ffffff; stroke-width: 0.398981"/>
    <path d="M 86.925027 675.738967 
C 87.969187 675.738967 88.970722 675.324118 89.709054 674.585785 
C 90.447387 673.847452 90.862237 672.845918 90.862237 671.801757 
C 90.862237 670.757597 90.447387 669.756062 89.709054 669.017729 
C 88.970722 668.279396 87.969187 667.864547 86.925027 667.864547 
C 85.880866 667.864547 84.879331 668.279396 84.140999 669.017729 
C 83.402666 669.756062 82.987816 670.757597 82.987816 671.801757 
C 82.987816 672.845918 83.402666 673.847452 84.140999 674.585785 
C 84.879331 675.324118 85.880866 675.738967 86.925027 675.738967 
z
" clip-path="url(#p8963e61d3a)" style="fill: #ffc857; stroke: #ffffff; stroke-width: 0.398981"/>
    <path d="M 461.631291 780.204083 
C 462.656833 780.204083 463.64051 779.796631 464.365677 779.071463 
C 465.090845 778.346295 465.498297 777.362619 465.498297 776.337077 
C 465.498297 775.311535 465.090845 774.327859 464.365677 773.602691 
C 463.64051 772.877523 462.656833 772.470071 461.631291 772.470071 
C 460.60575 772.470071 459.622073 772.877523 458.896905 773.602691 
C 458.171738 774.327859 457.764286 775.311535 457.764286 776.337077 
C 457.764286 777.362619 458.171738 778.346295 458.896905 779.071463 
C 459.622073 779.796631 460.60575 780.204083 461.631291 780.204083 
z
" clip-path="url(#p8963e61d3a)" style="fill: #ffc857; stroke: #ffffff; stroke-width: 0.398981"/>
    <path d="M 520.981068 742.902154 
C 522.087283 742.902154 523.148339 742.46265 523.93055 741.680438 
C 524.712762 740.898227 525.152266 739.837171 525.152266 738.730956 
C 525.152266 737.624742 524.712762 736.563686 523.93055 735.781475 
C 523.148339 734.999263 522.087283 734.559759 520.981068 734.559759 
C 519.874854 734.559759 518.813798 734.999263 518.031586 735.781475 
C 517.249375 736.563686 516.809871 737.624742 516.809871 738.730956 
C 516.809871 739.837171 517.249375 740.898227 518.031586 741.680438 
C 518.813798 742.46265 519.874854 742.902154 520.981068 742.902154 
z
" clip-path="url(#p8963e61d3a)" style="fill: #ffc857; stroke: #ffffff; stroke-width: 0.398981"/>
    <path d="M 144.94388 500.089604 
C 145.716157 500.089604 146.456908 499.782775 147.00299 499.236692 
C 147.549073 498.69061 147.855902 497.949859 147.855902 497.177582 
C 147.855902 496.405305 147.549073 495.664554 147.00299 495.118472 
C 146.456908 494.57239 145.716157 494.265561 144.94388 494.265561 
C 144.171603 494.265561 143.430852 494.57239 142.88477 495.118472 
C 142.338687 495.664554 142.031858 496.405305 142.031858 497.177582 
C 142.031858 497.949859 142.338687 498.69061 142.88477 499.236692 
C 143.430852 499.782775 144.171603 500.089604 144.94388 500.089604 
z
" clip-path="url(#p8963e61d3a)" style="fill: #b0b2b8; stroke: #ffffff; stroke-width: 0.398981"/>
    <path d="M 264.020958 619.033286 
C 264.782381 619.033286 265.512721 618.73077 266.051128 618.192362 
C 266.589536 617.653955 266.892052 616.923615 266.892052 616.162192 
C 266.892052 615.400769 266.589536 614.670429 266.051128 614.132022 
C 265.512721 613.593614 264.782381 613.291098 264.020958 613.291098 
C 263.259535 613.291098 262.529195 613.593614 261.990788 614.132022 
C 261.452381 614.670429 261.149864 615.400769 261.149864 616.162192 
C 261.149864 616.923615 261.452381 617.653955 261.990788 618.192362 
C 262.529195 618.73077 263.259535 619.033286 264.020958 619.033286 
z
" clip-path="url(#p8963e61d3a)" style="fill: #b0b2b8; stroke: #ffffff; stroke-width: 0.398981"/>
    <path d="M 97.401382 670.261533 
C 97.990725 670.261533 98.556009 670.027385 98.972737 669.610656 
C 99.389465 669.193928 99.623613 668.628644 99.623613 668.039302 
C 99.623613 667.449959 99.389465 666.884675 98.972737 666.467947 
C 98.556009 666.051219 97.990725 665.81707 97.401382 665.81707 
C 96.812039 665.81707 96.246755 666.051219 95.830027 666.467947 
C 95.413299 666.884675 95.179151 667.449959 95.179151 668.039302 
C 95.179151 668.628644 95.413299 669.193928 95.830027 669.610656 
C 96.246755 670.027385 96.812039 670.261533 97.401382 670.261533 
z
" clip-path="url(#p8963e61d3a)" style="fill: #254928; stroke: #ffffff; stroke-width: 0.398981"/>
    <path d="M 81.64529 669.083807 
C 82.31079 669.083807 82.949123 668.819401 83.419702 668.348821 
C 83.890282 667.878241 84.154688 667.239909 84.154688 666.574409 
C 84.154688 665.908909 83.890282 665.270576 83.419702 664.799997 
C 82.949123 664.329417 82.31079 664.065011 81.64529 664.065011 
C 80.97979 664.065011 80.341457 664.329417 79.870878 664.799997 
C 79.400298 665.270576 79.135892 665.908909 79.135892 666.574409 
C 79.135892 667.239909 79.400298 667.878241 79.870878 668.348821 
C 80.341457 668.819401 80.97979 669.083807 81.64529 669.083807 
z
" clip-path="url(#p8963e61d3a)" style="fill: #254928; stroke: #ffffff; stroke-width: 0.398981"/>
    <path d="M 85.799102 657.795214 
C 86.361683 657.795214 86.901298 657.571698 87.299102 657.173893 
C 87.696907 656.776089 87.920423 656.236474 87.920423 655.673893 
C 87.920423 655.111313 87.696907 654.571698 87.299102 654.173893 
C 86.901298 653.776089 86.361683 653.552573 85.799102 653.552573 
C 85.236521 653.552573 84.696907 653.776089 84.299102 654.173893 
C 83.901298 654.571698 83.677782 655.111313 83.677782 655.673893 
C 83.677782 656.236474 83.901298 656.776089 84.299102 657.173893 
C 84.696907 657.571698 85.236521 657.795214 85.799102 657.795214 
z
" clip-path="url(#p8963e61d3a)" style="fill: #254928; stroke: #ffffff; stroke-width: 0.398981"/>
    <path d="M 198.489115 560.716222 
C 199.310149 560.716222 200.097667 560.390022 200.678226 559.809463 
C 201.258785 559.228904 201.584985 558.441386 201.584985 557.620352 
C 201.584985 556.799317 201.258785 556.011799 200.678226 555.43124 
C 200.097667 554.850681 199.310149 554.524481 198.489115 554.524481 
C 197.66808 554.524481 196.880562 554.850681 196.300003 555.43124 
C 195.719444 556.011799 195.393244 556.799317 195.393244 557.620352 
C 195.393244 558.441386 195.719444 559.228904 196.300003 559.809463 
C 196.880562 560.390022 197.66808 560.716222 198.489115 560.716222 
z
" clip-path="url(#p8963e61d3a)" style="fill: #76a8d9; stroke: #ffffff; stroke-width: 0.398981"/>
    <path d="M 73.587739 660.430632 
C 74.591251 660.430632 75.553797 660.031932 76.263387 659.322342 
C 76.972977 658.612752 77.371677 657.650206 77.371677 656.646694 
C 77.371677 655.643183 76.972977 654.680637 76.263387 653.971047 
C 75.553797 653.261457 74.591251 652.862757 73.587739 652.862757 
C 72.584227 652.862757 71.621682 653.261457 70.912092 653.971047 
C 70.202501 654.680637 69.803802 655.643183 69.803802 656.646694 
C 69.803802 657.650206 70.202501 658.612752 70.912092 659.322342 
C 71.621682 660.031932 72.584227 660.430632 73.587739 660.430632 
z
" clip-path="url(#p8963e61d3a)" style="fill: #ffc857; stroke: #ffffff; stroke-width: 0.398981"/>
    <path d="M 220.244024 466.133827 
C 221.021076 466.133827 221.766408 465.825101 222.315867 465.275642 
C 222.865326 464.726183 223.174052 463.980852 223.174052 463.203799 
C 223.174052 462.426747 222.865326 461.681416 222.315867 461.131956 
C 221.766408 460.582497 221.021076 460.273771 220.244024 460.273771 
C 219.466971 460.273771 218.72164 460.582497 218.172181 461.131956 
C 217.622722 461.681416 217.313996 462.426747 217.313996 463.203799 
C 217.313996 463.980852 217.622722 464.726183 218.172181 465.275642 
C 218.72164 465.825101 219.466971 466.133827 220.244024 466.133827 
z
" clip-path="url(#p8963e61d3a)" style="fill: #b0b2b8; stroke: #ffffff; stroke-width: 0.398981"/>
    <path d="M 467.153268 724.212835 
C 467.870922 724.212835 468.559279 723.927709 469.066737 723.420251 
C 469.574195 722.912793 469.859322 722.224435 469.859322 721.506782 
C 469.859322 720.789128 469.574195 720.100771 469.066737 719.593313 
C 468.559279 719.085855 467.870922 718.800728 467.153268 718.800728 
C 466.435614 718.800728 465.747257 719.085855 465.239799 719.593313 
C 464.732341 720.100771 464.447214 720.789128 464.447214 721.506782 
C 464.447214 722.224435 464.732341 722.912793 465.239799 723.420251 
C 465.747257 723.927709 466.435614 724.212835 467.153268 724.212835 
z
" clip-path="url(#p8963e61d3a)" style="fill: #254928; stroke: #ffffff; stroke-width: 0.398981"/>
    <path d="M 269.024321 693.86555 
C 269.705848 693.86555 270.359552 693.594777 270.841465 693.112865 
C 271.323377 692.630953 271.59415 691.977248 271.59415 691.295721 
C 271.59415 690.614194 271.323377 689.96049 270.841465 689.478578 
C 270.359552 688.996665 269.705848 688.725892 269.024321 688.725892 
C 268.342794 688.725892 267.68909 688.996665 267.207177 689.478578 
C 266.725265 689.96049 266.454492 690.614194 266.454492 691.295721 
C 266.454492 691.977248 266.725265 692.630953 267.207177 693.112865 
C 267.68909 693.594777 268.342794 693.86555 269.024321 693.86555 
z
" clip-path="url(#p8963e61d3a)" style="fill: #254928; stroke: #ffffff; stroke-width: 0.398981"/>
    <path d="M 69.826935 664.756842 
C 70.48545 664.756842 71.117083 664.495211 71.582723 664.02957 
C 72.048364 663.56393 72.309994 662.932297 72.309994 662.273782 
C 72.309994 661.615267 72.048364 660.983634 71.582723 660.517994 
C 71.117083 660.052354 70.48545 659.790723 69.826935 659.790723 
C 69.16842 659.790723 68.536787 660.052354 68.071147 660.517994 
C 67.605506 660.983634 67.343875 661.615267 67.343875 662.273782 
C 67.343875 662.932297 67.605506 663.56393 68.071147 664.02957 
C 68.536787 664.495211 69.16842 664.756842 69.826935 664.756842 
z
" clip-path="url(#p8963e61d3a)" style="fill: #254928; stroke: #ffffff; stroke-width: 0.398981"/>
    <path d="M 288.266846 583.202766 
C 288.978145 583.202766 289.660408 582.920164 290.163372 582.417199 
C 290.666337 581.914234 290.948939 581.231972 290.948939 580.520673 
C 290.948939 579.809373 290.666337 579.127111 290.163372 578.624146 
C 289.660408 578.121182 288.978145 577.838579 288.266846 577.838579 
C 287.555546 577.838579 286.873284 578.121182 286.37032 578.624146 
C 285.867355 579.127111 285.584753 579.809373 285.584753 580.520673 
C 285.584753 581.231972 285.867355 581.914234 286.37032 582.417199 
C 286.873284 582.920164 287.555546 583.202766 288.266846 583.202766 
z
" clip-path="url(#p8963e61d3a)" style="fill: #254928; stroke: #ffffff; stroke-width: 0.398981"/>
    <path d="M 108.850019 655.913247 
C 109.871797 655.913247 110.851862 655.507291 111.574368 654.784785 
C 112.296874 654.062279 112.70283 653.082213 112.70283 652.060436 
C 112.70283 651.038658 112.296874 650.058593 111.574368 649.336087 
C 110.851862 648.613581 109.871797 648.207624 108.850019 648.207624 
C 107.828241 648.207624 106.848176 648.613581 106.12567 649.336087 
C 105.403164 650.058593 104.997208 651.038658 104.997208 652.060436 
C 104.997208 653.082213 105.403164 654.062279 106.12567 654.784785 
C 106.848176 655.507291 107.828241 655.913247 108.850019 655.913247 
z
" clip-path="url(#p8963e61d3a)" style="fill: #ffc857; stroke: #ffffff; stroke-width: 0.398981"/>
    <path d="M 362.331833 248.309268 
C 363.312034 248.309268 364.252221 247.919829 364.945328 247.226722 
C 365.638435 246.533615 366.027873 245.593429 366.027873 244.613227 
C 366.027873 243.633026 365.638435 242.692839 364.945328 241.999732 
C 364.252221 241.306625 363.312034 240.917187 362.331833 240.917187 
C 361.351632 240.917187 360.411445 241.306625 359.718338 241.999732 
C 359.025231 242.692839 358.635793 243.633026 358.635793 244.613227 
C 358.635793 245.593429 359.025231 246.533615 359.718338 247.226722 
C 360.411445 247.919829 361.351632 248.309268 362.331833 248.309268 
z
" clip-path="url(#p8963e61d3a)" style="fill: #76a8d9; stroke: #ffffff; stroke-width: 0.398981"/>
    <path d="M 88.463267 636.972867 
C 89.475861 636.972867 90.447119 636.570559 91.163131 635.854546 
C 91.879144 635.138534 92.281452 634.167276 92.281452 633.154681 
C 92.281452 632.142087 91.879144 631.170829 91.163131 630.454817 
C 90.447119 629.738804 89.475861 629.336496 88.463267 629.336496 
C 87.450672 629.336496 86.479414 629.738804 85.763402 630.454817 
C 85.047389 631.170829 84.645081 632.142087 84.645081 633.154681 
C 84.645081 634.167276 85.047389 635.138534 85.763402 635.854546 
C 86.479414 636.570559 87.450672 636.972867 88.463267 636.972867 
z
" clip-path="url(#p8963e61d3a)" style="fill: #ffc857; stroke: #ffffff; stroke-width: 0.398981"/>
    <path d="M 184.188698 620.207912 
C 185.060715 620.207912 185.897135 619.861456 186.513745 619.244846 
C 187.130354 618.628236 187.476811 617.791817 187.476811 616.919799 
C 187.476811 616.047781 187.130354 615.211362 186.513745 614.594752 
C 185.897135 613.978142 185.060715 613.631686 184.188698 613.631686 
C 183.31668 613.631686 182.48026 613.978142 181.86365 614.594752 
C 181.247041 615.211362 180.900584 616.047781 180.900584 616.919799 
C 180.900584 617.791817 181.247041 618.628236 181.86365 619.244846 
C 182.48026 619.861456 183.31668 620.207912 184.188698 620.207912 
z
" clip-path="url(#p8963e61d3a)" style="fill: #76a8d9; stroke: #ffffff; stroke-width: 0.398981"/>
    <path d="M 539.58001 771.125634 
C 540.377566 771.125634 541.142564 770.808761 541.706521 770.244804 
C 542.270478 769.680847 542.58735 768.915849 542.58735 768.118293 
C 542.58735 767.320737 542.270478 766.55574 541.706521 765.991782 
C 541.142564 765.427825 540.377566 765.110953 539.58001 765.110953 
C 538.782454 765.110953 538.017456 765.427825 537.453499 765.991782 
C 536.889542 766.55574 536.57267 767.320737 536.57267 768.118293 
C 536.57267 768.915849 536.889542 769.680847 537.453499 770.244804 
C 538.017456 770.808761 538.782454 771.125634 539.58001 771.125634 
z
" clip-path="url(#p8963e61d3a)" style="fill: #b0b2b8; stroke: #ffffff; stroke-width: 0.398981"/>
    <path d="M 129.950316 672.072703 
C 130.806278 672.072703 131.627297 671.732626 132.232553 671.12737 
C 132.837809 670.522113 133.177886 669.701095 133.177886 668.845133 
C 133.177886 667.989172 132.837809 667.168153 132.232553 666.562896 
C 131.627297 665.95764 130.806278 665.617563 129.950316 665.617563 
C 129.094355 665.617563 128.273336 665.95764 127.66808 666.562896 
C 127.062824 667.168153 126.722747 667.989172 126.722747 668.845133 
C 126.722747 669.701095 127.062824 670.522113 127.66808 671.12737 
C 128.273336 671.732626 129.094355 672.072703 129.950316 672.072703 
z
" clip-path="url(#p8963e61d3a)" style="fill: #76a8d9; stroke: #ffffff; stroke-width: 0.398981"/>
    <path d="M 132.331402 678.448078 
C 132.952329 678.448078 133.547909 678.201381 133.986971 677.762319 
C 134.426033 677.323257 134.67273 676.727678 134.67273 676.10675 
C 134.67273 675.485823 134.426033 674.890243 133.986971 674.451181 
C 133.547909 674.012119 132.952329 673.765422 132.331402 673.765422 
C 131.710474 673.765422 131.114895 674.012119 130.675833 674.451181 
C 130.23677 674.890243 129.990073 675.485823 129.990073 676.10675 
C 129.990073 676.727678 130.23677 677.323257 130.675833 677.762319 
C 131.114895 678.201381 131.710474 678.448078 132.331402 678.448078 
z
" clip-path="url(#p8963e61d3a)" style="fill: #254928; stroke: #ffffff; stroke-width: 0.398981"/>
    <path d="M 252.792314 727.483513 
C 253.600373 727.483513 254.375444 727.162468 254.946828 726.591084 
C 255.518211 726.0197 255.839256 725.244629 255.839256 724.43657 
C 255.839256 723.628512 255.518211 722.85344 254.946828 722.282056 
C 254.375444 721.710673 253.600373 721.389628 252.792314 721.389628 
C 251.984255 721.389628 251.209184 721.710673 250.6378 722.282056 
C 250.066416 722.85344 249.745371 723.628512 249.745371 724.43657 
C 249.745371 725.244629 250.066416 726.0197 250.6378 726.591084 
C 251.209184 727.162468 251.984255 727.483513 252.792314 727.483513 
z
" clip-path="url(#p8963e61d3a)" style="fill: #b0b2b8; stroke: #ffffff; stroke-width: 0.398981"/>
    <path d="M 337.62771 708.758654 
C 338.478479 708.758654 339.294517 708.42064 339.896101 707.819055 
C 340.497685 707.217471 340.835699 706.401433 340.835699 705.550665 
C 340.835699 704.699896 340.497685 703.883858 339.896101 703.282274 
C 339.294517 702.68069 338.478479 702.342676 337.62771 702.342676 
C 336.776942 702.342676 335.960904 702.68069 335.359319 703.282274 
C 334.757735 703.883858 334.419721 704.699896 334.419721 705.550665 
C 334.419721 706.401433 334.757735 707.217471 335.359319 707.819055 
C 335.960904 708.42064 336.776942 708.758654 337.62771 708.758654 
z
" clip-path="url(#p8963e61d3a)" style="fill: #76a8d9; stroke: #ffffff; stroke-width: 0.398981"/>
    <path d="M 91.526214 498.559082 
C 92.381718 498.559082 93.202299 498.219186 93.807232 497.614253 
C 94.412165 497.00932 94.752061 496.188739 94.752061 495.333235 
C 94.752061 494.47773 94.412165 493.65715 93.807232 493.052217 
C 93.202299 492.447283 92.381718 492.107388 91.526214 492.107388 
C 90.670709 492.107388 89.850129 492.447283 89.245195 493.052217 
C 88.640262 493.65715 88.300367 494.47773 88.300367 495.333235 
C 88.300367 496.188739 88.640262 497.00932 89.245195 497.614253 
C 89.850129 498.219186 90.670709 498.559082 91.526214 498.559082 
z
" clip-path="url(#p8963e61d3a)" style="fill: #4f301f; stroke: #ffffff; stroke-width: 0.398981"/>
    <path d="M 81.255283 633.962661 
C 81.961244 633.962661 82.638385 633.682179 83.137574 633.18299 
C 83.636764 632.683801 83.917245 632.006659 83.917245 631.300699 
C 83.917245 630.594739 83.636764 629.917597 83.137574 629.418408 
C 82.638385 628.919219 81.961244 628.638738 81.255283 628.638738 
C 80.549323 628.638738 79.872182 628.919219 79.372992 629.418408 
C 78.873803 629.917597 78.593322 630.594739 78.593322 631.300699 
C 78.593322 632.006659 78.873803 632.683801 79.372992 633.18299 
C 79.872182 633.682179 80.549323 633.962661 81.255283 633.962661 
z
" clip-path="url(#p8963e61d3a)" style="fill: #254928; stroke: #ffffff; stroke-width: 0.398981"/>
    <path d="M 62.151429 665.115523 
C 63.016348 665.115523 63.845958 664.771887 64.457547 664.160298 
C 65.069137 663.548708 65.412773 662.719098 65.412773 661.854179 
C 65.412773 660.989261 65.069137 660.159651 64.457547 659.548061 
C 63.845958 658.936471 63.016348 658.592836 62.151429 658.592836 
C 61.286511 658.592836 60.4569 658.936471 59.845311 659.548061 
C 59.233721 660.159651 58.890085 660.989261 58.890085 661.854179 
C 58.890085 662.719098 59.233721 663.548708 59.845311 664.160298 
C 60.4569 664.771887 61.286511 665.115523 62.151429 665.115523 
z
" clip-path="url(#p8963e61d3a)" style="fill: #76a8d9; stroke: #ffffff; stroke-width: 0.398981"/>
    <path d="M 316.617253 706.216907 
C 317.742414 706.216907 318.821643 705.769875 319.617253 704.974266 
C 320.412862 704.178657 320.859893 703.099428 320.859893 701.974266 
C 320.859893 700.849105 320.412862 699.769875 319.617253 698.974266 
C 318.821643 698.178657 317.742414 697.731625 316.617253 697.731625 
C 315.492091 697.731625 314.412862 698.178657 313.617253 698.974266 
C 312.821643 699.769875 312.374612 700.849105 312.374612 701.974266 
C 312.374612 703.099428 312.821643 704.178657 313.617253 704.974266 
C 314.412862 705.769875 315.492091 706.216907 316.617253 706.216907 
z
" clip-path="url(#p8963e61d3a)" style="fill: #ffc857; stroke: #ffffff; stroke-width: 0.398981"/>
    <path d="M 389.870418 65.366061 
C 390.952849 65.366061 391.991091 64.936006 392.756485 64.170613 
C 393.521879 63.405219 393.951933 62.366976 393.951933 61.284545 
C 393.951933 60.202115 393.521879 59.163872 392.756485 58.398478 
C 391.991091 57.633084 390.952849 57.20303 389.870418 57.20303 
C 388.787988 57.20303 387.749745 57.633084 386.984351 58.398478 
C 386.218957 59.163872 385.788903 60.202115 385.788903 61.284545 
C 385.788903 62.366976 386.218957 63.405219 386.984351 64.170613 
C 387.749745 64.936006 388.787988 65.366061 389.870418 65.366061 
z
" clip-path="url(#p8963e61d3a)" style="fill: #ffc857; stroke: #ffffff; stroke-width: 0.398981"/>
    <path d="M 99.659818 661.367232 
C 100.556241 661.367232 101.416069 661.01108 102.049936 660.377213 
C 102.683802 659.743347 103.039955 658.883518 103.039955 657.987095 
C 103.039955 657.090673 102.683802 656.230844 102.049936 655.596978 
C 101.416069 654.963111 100.556241 654.606959 99.659818 654.606959 
C 98.763395 654.606959 97.903567 654.963111 97.269701 655.596978 
C 96.635834 656.230844 96.279681 657.090673 96.279681 657.987095 
C 96.279681 658.883518 96.635834 659.743347 97.269701 660.377213 
C 97.903567 661.01108 98.763395 661.367232 99.659818 661.367232 
z
" clip-path="url(#p8963e61d3a)" style="fill: #76a8d9; stroke: #ffffff; stroke-width: 0.398981"/>
    <path d="M 282.736877 796.038003 
C 283.655155 796.038003 284.535947 795.673167 285.185268 795.023846 
C 285.834589 794.374525 286.199425 793.493733 286.199425 792.575455 
C 286.199425 791.657176 285.834589 790.776384 285.185268 790.127063 
C 284.535947 789.477742 283.655155 789.112906 282.736877 789.112906 
C 281.818598 789.112906 280.937806 789.477742 280.288485 790.127063 
C 279.639164 790.776384 279.274328 791.657176 279.274328 792.575455 
C 279.274328 793.493733 279.639164 794.374525 280.288485 795.023846 
C 280.937806 795.673167 281.818598 796.038003 282.736877 796.038003 
z
" clip-path="url(#p8963e61d3a)" style="fill: #76a8d9; stroke: #ffffff; stroke-width: 0.398981"/>
    <path d="M 115.106492 626.989251 
C 116.116892 626.989251 117.086045 626.587815 117.800506 625.873354 
C 118.514967 625.158893 118.916403 624.18974 118.916403 623.17934 
C 118.916403 622.16894 118.514967 621.199787 117.800506 620.485326 
C 117.086045 619.770865 116.116892 619.369429 115.106492 619.369429 
C 114.096092 619.369429 113.126939 619.770865 112.412478 620.485326 
C 111.698017 621.199787 111.296581 622.16894 111.296581 623.17934 
C 111.296581 624.18974 111.698017 625.158893 112.412478 625.873354 
C 113.126939 626.587815 114.096092 626.989251 115.106492 626.989251 
z
" clip-path="url(#p8963e61d3a)" style="fill: #ffc857; stroke: #ffffff; stroke-width: 0.398981"/>
    <path d="M 296.242895 682.273267 
C 296.995944 682.273267 297.71825 681.974078 298.250736 681.441592 
C 298.783222 680.909107 299.082411 680.1868 299.082411 679.433752 
C 299.082411 678.680703 298.783222 677.958397 298.250736 677.425911 
C 297.71825 676.893426 296.995944 676.594236 296.242895 676.594236 
C 295.489847 676.594236 294.76754 676.893426 294.235055 677.425911 
C 293.702569 677.958397 293.40338 678.680703 293.40338 679.433752 
C 293.40338 680.1868 293.702569 680.909107 294.235055 681.441592 
C 294.76754 681.974078 295.489847 682.273267 296.242895 682.273267 
z
" clip-path="url(#p8963e61d3a)" style="fill: #b0b2b8; stroke: #ffffff; stroke-width: 0.398981"/>
    <path d="M 193.581004 467.573432 
C 194.345659 467.573432 195.079099 467.269632 195.619792 466.728939 
C 196.160484 466.188246 196.464285 465.454806 196.464285 464.690151 
C 196.464285 463.925496 196.160484 463.192056 195.619792 462.651363 
C 195.079099 462.11067 194.345659 461.80687 193.581004 461.80687 
C 192.816349 461.80687 192.082909 462.11067 191.542216 462.651363 
C 191.001523 463.192056 190.697722 463.925496 190.697722 464.690151 
C 190.697722 465.454806 191.001523 466.188246 191.542216 466.728939 
C 192.082909 467.269632 192.816349 467.573432 193.581004 467.573432 
z
" clip-path="url(#p8963e61d3a)" style="fill: #b0b2b8; stroke: #ffffff; stroke-width: 0.398981"/>
   </g>
   <g id="line2d_31"/>
   <g id="line2d_32"/>
   <g id="line2d_33"/>
   <g id="line2d_34"/>
   <g id="line2d_35"/>
   <g id="line2d_36"/>
   <g id="line2d_37"/>
   <g id="line2d_38"/>
   <g id="line2d_39"/>
   <g id="line2d_40"/>
   <g id="line2d_41"/>
   <g id="line2d_42"/>
   <g id="text_18">
    <!-- AK -->
    <g style="fill: #b0b2b8" transform="translate(124.49935 653.775818) scale(0.07 -0.07)">
     <defs>
      <path id="DejaVuSans-Bold-41" d="M 3419 850 
L 1538 850 
L 1241 0 
L 31 0 
L 1759 4666 
L 3194 4666 
L 4922 0 
L 3713 0 
L 3419 850 
z
M 1838 1716 
L 3116 1716 
L 2478 3572 
L 1838 1716 
z
" transform="scale(0.015625)"/>
      <path id="DejaVuSans-Bold-4b" d="M 588 4666 
L 1791 4666 
L 1791 2963 
L 3525 4666 
L 4922 4666 
L 2675 2456 
L 5153 0 
L 3647 0 
L 1791 1838 
L 1791 0 
L 588 0 
L 588 4666 
z
" transform="scale(0.015625)"/>
     </defs>
     <use xlink:href="#DejaVuSans-Bold-41"/>
     <use xlink:href="#DejaVuSans-Bold-4b" x="77.392578"/>
    </g>
   </g>
   <g id="text_19">
    <!-- AZ -->
    <g style="fill: #b0b2b8" transform="translate(89.678308 680.345976) scale(0.07 -0.07)">
     <defs>
      <path id="DejaVuSans-Bold-5a" d="M 359 4666 
L 4281 4666 
L 4281 3938 
L 1778 909 
L 4353 909 
L 4353 0 
L 288 0 
L 288 728 
L 2791 3756 
L 359 3756 
L 359 4666 
z
" transform="scale(0.015625)"/>
     </defs>
     <use xlink:href="#DejaVuSans-Bold-41"/>
     <use xlink:href="#DejaVuSans-Bold-5a" x="77.392578"/>
    </g>
   </g>
   <g id="text_20">
    <!-- CA -->
    <g style="fill: #b0b2b8" transform="translate(464.353948 784.881296) scale(0.07 -0.07)">
     <use xlink:href="#DejaVuSans-Bold-43"/>
     <use xlink:href="#DejaVuSans-Bold-41" x="73.388672"/>
    </g>
   </g>
   <g id="text_21">
    <!-- CO -->
    <g style="fill: #b0b2b8" transform="translate(523.43685 747.275175) scale(0.07 -0.07)">
     <defs>
      <path id="DejaVuSans-Bold-4f" d="M 2719 3878 
Q 2169 3878 1866 3472 
Q 1563 3066 1563 2328 
Q 1563 1594 1866 1187 
Q 2169 781 2719 781 
Q 3272 781 3575 1187 
Q 3878 1594 3878 2328 
Q 3878 3066 3575 3472 
Q 3272 3878 2719 3878 
z
M 2719 4750 
Q 3844 4750 4481 4106 
Q 5119 3463 5119 2328 
Q 5119 1197 4481 553 
Q 3844 -91 2719 -91 
Q 1597 -91 958 553 
Q 319 1197 319 2328 
Q 319 3463 958 4106 
Q 1597 4750 2719 4750 
z
" transform="scale(0.015625)"/>
     </defs>
     <use xlink:href="#DejaVuSans-Bold-43"/>
     <use xlink:href="#DejaVuSans-Bold-4f" x="73.388672"/>
    </g>
   </g>
   <g id="text_22">
    <!-- CT -->
    <g style="fill: #b0b2b8" transform="translate(147.987552 505.721801) scale(0.07 -0.07)">
     <defs>
      <path id="DejaVuSans-Bold-54" d="M 31 4666 
L 4331 4666 
L 4331 3756 
L 2784 3756 
L 2784 0 
L 1581 0 
L 1581 3756 
L 31 3756 
L 31 4666 
z
" transform="scale(0.015625)"/>
     </defs>
     <use xlink:href="#DejaVuSans-Bold-43"/>
     <use xlink:href="#DejaVuSans-Bold-54" x="73.388672"/>
    </g>
   </g>
   <g id="text_23">
    <!-- ID -->
    <g style="fill: #b0b2b8" transform="translate(267.813302 624.706411) scale(0.07 -0.07)">
     <defs>
      <path id="DejaVuSans-Bold-49" d="M 588 4666 
L 1791 4666 
L 1791 0 
L 588 0 
L 588 4666 
z
" transform="scale(0.015625)"/>
      <path id="DejaVuSans-Bold-44" d="M 1791 3756 
L 1791 909 
L 2222 909 
Q 2959 909 3348 1275 
Q 3738 1641 3738 2338 
Q 3738 3031 3350 3393 
Q 2963 3756 2222 3756 
L 1791 3756 
z
M 588 4666 
L 1856 4666 
Q 2919 4666 3439 4514 
Q 3959 4363 4331 4000 
Q 4659 3684 4818 3271 
Q 4978 2859 4978 2338 
Q 4978 1809 4818 1395 
Q 4659 981 4331 666 
Q 3956 303 3431 151 
Q 2906 0 1856 0 
L 588 0 
L 588 4666 
z
" transform="scale(0.015625)"/>
     </defs>
     <use xlink:href="#DejaVuSans-Bold-49"/>
     <use xlink:href="#DejaVuSans-Bold-44" x="37.207031"/>
    </g>
   </g>
   <g id="text_24">
    <!-- IL -->
    <g style="fill: #b0b2b8" transform="translate(101.869116 676.58352) scale(0.07 -0.07)">
     <defs>
      <path id="DejaVuSans-Bold-4c" d="M 588 4666 
L 1791 4666 
L 1791 909 
L 3903 909 
L 3903 0 
L 588 0 
L 588 4666 
z
" transform="scale(0.015625)"/>
     </defs>
     <use xlink:href="#DejaVuSans-Bold-49"/>
     <use xlink:href="#DejaVuSans-Bold-4c" x="37.207031"/>
    </g>
   </g>
   <g id="text_25">
    <!-- IN -->
    <g style="fill: #b0b2b8" transform="translate(85.414118 675.118628) scale(0.07 -0.07)">
     <defs>
      <path id="DejaVuSans-Bold-4e" d="M 588 4666 
L 1931 4666 
L 3628 1466 
L 3628 4666 
L 4769 4666 
L 4769 0 
L 3425 0 
L 1728 3200 
L 1728 0 
L 588 0 
L 588 4666 
z
" transform="scale(0.015625)"/>
     </defs>
     <use xlink:href="#DejaVuSans-Bold-49"/>
     <use xlink:href="#DejaVuSans-Bold-4e" x="37.207031"/>
    </g>
   </g>
   <g id="text_26">
    <!-- IA -->
    <g style="fill: #b0b2b8" transform="translate(89.788321 664.218112) scale(0.07 -0.07)">
     <use xlink:href="#DejaVuSans-Bold-49"/>
     <use xlink:href="#DejaVuSans-Bold-41" x="37.207031"/>
    </g>
   </g>
   <g id="text_27">
    <!-- ME -->
    <g style="fill: #b0b2b8" transform="translate(200.61513 566.16457) scale(0.07 -0.07)">
     <defs>
      <path id="DejaVuSans-Bold-4d" d="M 588 4666 
L 2119 4666 
L 3181 2169 
L 4250 4666 
L 5778 4666 
L 5778 0 
L 4641 0 
L 4641 3413 
L 3566 897 
L 2803 897 
L 1728 3413 
L 1728 0 
L 588 0 
L 588 4666 
z
" transform="scale(0.015625)"/>
      <path id="DejaVuSans-Bold-45" d="M 588 4666 
L 3834 4666 
L 3834 3756 
L 1791 3756 
L 1791 2888 
L 3713 2888 
L 3713 1978 
L 1791 1978 
L 1791 909 
L 3903 909 
L 3903 0 
L 588 0 
L 588 4666 
z
" transform="scale(0.015625)"/>
     </defs>
     <use xlink:href="#DejaVuSans-Bold-4d"/>
     <use xlink:href="#DejaVuSans-Bold-45" x="99.511719"/>
    </g>
   </g>
   <g id="text_28">
    <!-- MD -->
    <g style="fill: #b0b2b8" transform="translate(75.199146 665.190913) scale(0.07 -0.07)">
     <use xlink:href="#DejaVuSans-Bold-4d"/>
     <use xlink:href="#DejaVuSans-Bold-44" x="99.511719"/>
    </g>
   </g>
   <g id="text_29">
    <!-- MA -->
    <g style="fill: #b0b2b8" transform="translate(222.052305 471.748018) scale(0.07 -0.07)">
     <use xlink:href="#DejaVuSans-Bold-4d"/>
     <use xlink:href="#DejaVuSans-Bold-41" x="99.511719"/>
    </g>
   </g>
   <g id="text_30">
    <!-- MI -->
    <g style="fill: #b0b2b8" transform="translate(470.368112 730.051) scale(0.07 -0.07)">
     <use xlink:href="#DejaVuSans-Bold-4d"/>
     <use xlink:href="#DejaVuSans-Bold-49" x="99.511719"/>
    </g>
   </g>
   <g id="text_31">
    <!-- MN -->
    <g style="fill: #b0b2b8" transform="translate(270.612212 699.83994) scale(0.07 -0.07)">
     <use xlink:href="#DejaVuSans-Bold-4d"/>
     <use xlink:href="#DejaVuSans-Bold-4e" x="99.511719"/>
    </g>
   </g>
   <g id="text_32">
    <!-- MO -->
    <g style="fill: #b0b2b8" transform="translate(71.368341 670.818001) scale(0.07 -0.07)">
     <use xlink:href="#DejaVuSans-Bold-4d"/>
     <use xlink:href="#DejaVuSans-Bold-4f" x="99.511719"/>
    </g>
   </g>
   <g id="text_33">
    <!-- MT -->
    <g style="fill: #254928" transform="translate(290.396143 589.064891) scale(0.07 -0.07)">
     <use xlink:href="#DejaVuSans-Bold-4d"/>
     <use xlink:href="#DejaVuSans-Bold-54" x="99.511719"/>
    </g>
   </g>
   <g id="text_34">
    <!-- NV -->
    <g style="fill: #b0b2b8" transform="translate(111.212285 660.604655) scale(0.07 -0.07)">
     <defs>
      <path id="DejaVuSans-Bold-56" d="M 31 4666 
L 1241 4666 
L 2478 1222 
L 3713 4666 
L 4922 4666 
L 3194 0 
L 1759 0 
L 31 4666 
z
" transform="scale(0.015625)"/>
     </defs>
     <use xlink:href="#DejaVuSans-Bold-4e"/>
     <use xlink:href="#DejaVuSans-Bold-56" x="83.691406"/>
    </g>
   </g>
   <g id="text_35">
    <!-- NH -->
    <g style="fill: #b0b2b8" transform="translate(364.473708 253.157446) scale(0.07 -0.07)">
     <defs>
      <path id="DejaVuSans-Bold-48" d="M 588 4666 
L 1791 4666 
L 1791 2888 
L 3566 2888 
L 3566 4666 
L 4769 4666 
L 4769 0 
L 3566 0 
L 3566 1978 
L 1791 1978 
L 1791 0 
L 588 0 
L 588 4666 
z
" transform="scale(0.015625)"/>
     </defs>
     <use xlink:href="#DejaVuSans-Bold-4e"/>
     <use xlink:href="#DejaVuSans-Bold-48" x="83.691406"/>
    </g>
   </g>
   <g id="text_36">
    <!-- NJ -->
    <g style="fill: #b0b2b8" transform="translate(92.232095 641.6989) scale(0.07 -0.07)">
     <defs>
      <path id="DejaVuSans-Bold-4a" d="M 588 4666 
L 1791 4666 
L 1791 453 
Q 1791 -419 1317 -850 
Q 844 -1281 -116 -1281 
L -359 -1281 
L -359 -372 
L -172 -372 
Q 203 -372 395 -162 
Q 588 47 588 453 
L 588 4666 
z
" transform="scale(0.015625)"/>
     </defs>
     <use xlink:href="#DejaVuSans-Bold-4e"/>
     <use xlink:href="#DejaVuSans-Bold-4a" x="83.691406"/>
    </g>
   </g>
   <g id="text_37">
    <!-- NM -->
    <g style="fill: #b0b2b8" transform="translate(185.776588 625.464018) scale(0.07 -0.07)">
     <use xlink:href="#DejaVuSans-Bold-4e"/>
     <use xlink:href="#DejaVuSans-Bold-4d" x="83.691406"/>
    </g>
   </g>
   <g id="text_38">
    <!-- NY -->
    <g style="fill: #b0b2b8" transform="translate(542.116729 776.662512) scale(0.07 -0.07)">
     <defs>
      <path id="DejaVuSans-Bold-59" d="M -63 4666 
L 1253 4666 
L 2316 3003 
L 3378 4666 
L 4697 4666 
L 2919 1966 
L 2919 0 
L 1716 0 
L 1716 1966 
L -63 4666 
z
" transform="scale(0.015625)"/>
     </defs>
     <use xlink:href="#DejaVuSans-Bold-4e"/>
     <use xlink:href="#DejaVuSans-Bold-59" x="83.691406"/>
    </g>
   </g>
   <g id="text_39">
    <!-- NC -->
    <g style="fill: #b0b2b8" transform="translate(132.452582 677.389352) scale(0.07 -0.07)">
     <use xlink:href="#DejaVuSans-Bold-4e"/>
     <use xlink:href="#DejaVuSans-Bold-43" x="83.691406"/>
    </g>
   </g>
   <g id="text_40">
    <!-- OH -->
    <g style="fill: #b0b2b8" transform="translate(134.426792 684.650969) scale(0.07 -0.07)">
     <use xlink:href="#DejaVuSans-Bold-4f"/>
     <use xlink:href="#DejaVuSans-Bold-48" x="85.009766"/>
    </g>
   </g>
   <g id="text_41">
    <!-- OR -->
    <g style="fill: #b0b2b8" transform="translate(255.121767 732.980789) scale(0.07 -0.07)">
     <defs>
      <path id="DejaVuSans-Bold-52" d="M 2297 2597 
Q 2675 2597 2839 2737 
Q 3003 2878 3003 3200 
Q 3003 3519 2839 3656 
Q 2675 3794 2297 3794 
L 1791 3794 
L 1791 2597 
L 2297 2597 
z
M 1791 1766 
L 1791 0 
L 588 0 
L 588 4666 
L 2425 4666 
Q 3347 4666 3776 4356 
Q 4206 4047 4206 3378 
Q 4206 2916 3982 2619 
Q 3759 2322 3309 2181 
Q 3556 2125 3751 1926 
Q 3947 1728 4147 1325 
L 4800 0 
L 3519 0 
L 2950 1159 
Q 2778 1509 2601 1637 
Q 2425 1766 2131 1766 
L 1791 1766 
z
" transform="scale(0.015625)"/>
     </defs>
     <use xlink:href="#DejaVuSans-Bold-4f"/>
     <use xlink:href="#DejaVuSans-Bold-52" x="85.009766"/>
    </g>
   </g>
   <g id="text_42">
    <!-- PA -->
    <g style="fill: #b0b2b8" transform="translate(340.673023 714.094883) scale(0.07 -0.07)">
     <use xlink:href="#DejaVuSans-Bold-50"/>
     <use xlink:href="#DejaVuSans-Bold-41" x="64.166016"/>
    </g>
   </g>
   <g id="text_43">
    <!-- RI -->
    <g style="fill: #b0b2b8" transform="translate(95.529104 503.877454) scale(0.07 -0.07)">
     <use xlink:href="#DejaVuSans-Bold-52"/>
     <use xlink:href="#DejaVuSans-Bold-49" x="77.001953"/>
    </g>
   </g>
   <g id="text_44">
    <!-- SD -->
    <g style="fill: #b0b2b8" transform="translate(83.82919 639.844918) scale(0.07 -0.07)">
     <defs>
      <path id="DejaVuSans-Bold-53" d="M 3834 4519 
L 3834 3531 
Q 3450 3703 3084 3790 
Q 2719 3878 2394 3878 
Q 1963 3878 1756 3759 
Q 1550 3641 1550 3391 
Q 1550 3203 1689 3098 
Q 1828 2994 2194 2919 
L 2706 2816 
Q 3484 2659 3812 2340 
Q 4141 2022 4141 1434 
Q 4141 663 3683 286 
Q 3225 -91 2284 -91 
Q 1841 -91 1394 -6 
Q 947 78 500 244 
L 500 1259 
Q 947 1022 1364 901 
Q 1781 781 2169 781 
Q 2563 781 2772 912 
Q 2981 1044 2981 1288 
Q 2981 1506 2839 1625 
Q 2697 1744 2272 1838 
L 1806 1941 
Q 1106 2091 782 2419 
Q 459 2747 459 3303 
Q 459 4000 909 4375 
Q 1359 4750 2203 4750 
Q 2588 4750 2994 4692 
Q 3400 4634 3834 4519 
z
" transform="scale(0.015625)"/>
     </defs>
     <use xlink:href="#DejaVuSans-Bold-53"/>
     <use xlink:href="#DejaVuSans-Bold-44" x="72.021484"/>
    </g>
   </g>
   <g id="text_45">
    <!-- TN -->
    <g style="fill: #b0b2b8" transform="translate(64.83471 670.398398) scale(0.07 -0.07)">
     <use xlink:href="#DejaVuSans-Bold-54"/>
     <use xlink:href="#DejaVuSans-Bold-4e" x="68.212891"/>
    </g>
   </g>
   <g id="text_46">
    <!-- UT -->
    <g style="fill: #b0b2b8" transform="translate(319.387487 710.518485) scale(0.07 -0.07)">
     <defs>
      <path id="DejaVuSans-Bold-55" d="M 588 4666 
L 1791 4666 
L 1791 1869 
Q 1791 1291 1980 1042 
Q 2169 794 2597 794 
Q 3028 794 3217 1042 
Q 3406 1291 3406 1869 
L 3406 4666 
L 4609 4666 
L 4609 1869 
Q 4609 878 4112 393 
Q 3616 -91 2597 -91 
Q 1581 -91 1084 393 
Q 588 878 588 1869 
L 588 4666 
z
" transform="scale(0.015625)"/>
     </defs>
     <use xlink:href="#DejaVuSans-Bold-55"/>
     <use xlink:href="#DejaVuSans-Bold-54" x="81.201172"/>
    </g>
   </g>
   <g id="text_47">
    <!-- VT -->
    <g style="fill: #b0b2b8" transform="translate(392.77409 69.828764) scale(0.07 -0.07)">
     <use xlink:href="#DejaVuSans-Bold-56"/>
     <use xlink:href="#DejaVuSans-Bold-54" x="77.392578"/>
    </g>
   </g>
   <g id="text_48">
    <!-- VA -->
    <g style="fill: #b0b2b8" transform="translate(102.478724 666.531314) scale(0.07 -0.07)">
     <use xlink:href="#DejaVuSans-Bold-56"/>
     <use xlink:href="#DejaVuSans-Bold-41" x="70.642578"/>
    </g>
   </g>
   <g id="text_49">
    <!-- WA -->
    <g style="fill: #b0b2b8" transform="translate(284.325314 801.119673) scale(0.07 -0.07)">
     <defs>
      <path id="DejaVuSans-Bold-57" d="M 191 4666 
L 1344 4666 
L 2150 1275 
L 2950 4666 
L 4109 4666 
L 4909 1275 
L 5716 4666 
L 6859 4666 
L 5759 0 
L 4372 0 
L 3525 3547 
L 2688 0 
L 1300 0 
L 191 4666 
z
" transform="scale(0.015625)"/>
     </defs>
     <use xlink:href="#DejaVuSans-Bold-57"/>
     <use xlink:href="#DejaVuSans-Bold-41" x="105.802734"/>
    </g>
   </g>
   <g id="text_50">
    <!-- WV -->
    <g style="fill: #b0b2b8" transform="translate(116.537429 631.723559) scale(0.07 -0.07)">
     <use xlink:href="#DejaVuSans-Bold-57"/>
     <use xlink:href="#DejaVuSans-Bold-56" x="110.302734"/>
    </g>
   </g>
   <g id="text_51">
    <!-- WI -->
    <g style="fill: #b0b2b8" transform="translate(299.080395 687.97797) scale(0.07 -0.07)">
     <use xlink:href="#DejaVuSans-Bold-57"/>
     <use xlink:href="#DejaVuSans-Bold-49" x="110.302734"/>
    </g>
   </g>
   <g id="text_52">
    <!-- WY -->
    <g style="fill: #b0b2b8" transform="translate(195.186394 473.23437) scale(0.07 -0.07)">
     <use xlink:href="#DejaVuSans-Bold-57"/>
     <use xlink:href="#DejaVuSans-Bold-59" x="110.302734"/>
    </g>
   </g>
   <g id="patch_3">
    <path d="M 38.28 829.14 
L 38.28 24.72 
" style="fill: none; stroke: #bcbcbc; stroke-width: 0.8; stroke-linejoin: miter; stroke-linecap: square"/>
   </g>
   <g id="patch_4">
    <path d="M 563.451439 829.14 
L 563.451439 24.72 
" style="fill: none; stroke: #bcbcbc; stroke-width: 0.8; stroke-linejoin: miter; stroke-linecap: square"/>
   </g>
   <g id="patch_5">
    <path d="M 38.28 829.14 
L 563.451439 829.14 
" style="fill: none; stroke: #bcbcbc; stroke-width: 0.8; stroke-linejoin: miter; stroke-linecap: square"/>
   </g>
   <g id="patch_6">
    <path d="M 38.28 24.72 
L 563.451439 24.72 
" style="fill: none; stroke: #bcbcbc; stroke-width: 0.8; stroke-linejoin: miter; stroke-linecap: square"/>
   </g>
   <g id="text_53">
    <!-- Ski states summary PCA, 76.2% variance explained -->
    <g transform="translate(156.057907 18.72) scale(0.1 -0.1)">
     <defs>
      <path id="DejaVuSans-Bold-6b" d="M 538 4863 
L 1656 4863 
L 1656 2216 
L 2944 3500 
L 4244 3500 
L 2534 1894 
L 4378 0 
L 3022 0 
L 1656 1459 
L 1656 0 
L 538 0 
L 538 4863 
z
" transform="scale(0.015625)"/>
      <path id="DejaVuSans-Bold-69" d="M 538 3500 
L 1656 3500 
L 1656 0 
L 538 0 
L 538 3500 
z
M 538 4863 
L 1656 4863 
L 1656 3950 
L 538 3950 
L 538 4863 
z
" transform="scale(0.015625)"/>
      <path id="DejaVuSans-Bold-20" transform="scale(0.015625)"/>
      <path id="DejaVuSans-Bold-73" d="M 3272 3391 
L 3272 2541 
Q 2913 2691 2578 2766 
Q 2244 2841 1947 2841 
Q 1628 2841 1473 2761 
Q 1319 2681 1319 2516 
Q 1319 2381 1436 2309 
Q 1553 2238 1856 2203 
L 2053 2175 
Q 2913 2066 3209 1816 
Q 3506 1566 3506 1031 
Q 3506 472 3093 190 
Q 2681 -91 1863 -91 
Q 1516 -91 1145 -36 
Q 775 19 384 128 
L 384 978 
Q 719 816 1070 734 
Q 1422 653 1784 653 
Q 2113 653 2278 743 
Q 2444 834 2444 1013 
Q 2444 1163 2330 1236 
Q 2216 1309 1875 1350 
L 1678 1375 
Q 931 1469 631 1722 
Q 331 1975 331 2491 
Q 331 3047 712 3315 
Q 1094 3584 1881 3584 
Q 2191 3584 2531 3537 
Q 2872 3491 3272 3391 
z
" transform="scale(0.015625)"/>
      <path id="DejaVuSans-Bold-74" d="M 1759 4494 
L 1759 3500 
L 2913 3500 
L 2913 2700 
L 1759 2700 
L 1759 1216 
Q 1759 972 1856 886 
Q 1953 800 2241 800 
L 2816 800 
L 2816 0 
L 1856 0 
Q 1194 0 917 276 
Q 641 553 641 1216 
L 641 2700 
L 84 2700 
L 84 3500 
L 641 3500 
L 641 4494 
L 1759 4494 
z
" transform="scale(0.015625)"/>
      <path id="DejaVuSans-Bold-61" d="M 2106 1575 
Q 1756 1575 1579 1456 
Q 1403 1338 1403 1106 
Q 1403 894 1545 773 
Q 1688 653 1941 653 
Q 2256 653 2472 879 
Q 2688 1106 2688 1447 
L 2688 1575 
L 2106 1575 
z
M 3816 1997 
L 3816 0 
L 2688 0 
L 2688 519 
Q 2463 200 2181 54 
Q 1900 -91 1497 -91 
Q 953 -91 614 226 
Q 275 544 275 1050 
Q 275 1666 698 1953 
Q 1122 2241 2028 2241 
L 2688 2241 
L 2688 2328 
Q 2688 2594 2478 2717 
Q 2269 2841 1825 2841 
Q 1466 2841 1156 2769 
Q 847 2697 581 2553 
L 581 3406 
Q 941 3494 1303 3539 
Q 1666 3584 2028 3584 
Q 2975 3584 3395 3211 
Q 3816 2838 3816 1997 
z
" transform="scale(0.015625)"/>
      <path id="DejaVuSans-Bold-65" d="M 4031 1759 
L 4031 1441 
L 1416 1441 
Q 1456 1047 1700 850 
Q 1944 653 2381 653 
Q 2734 653 3104 758 
Q 3475 863 3866 1075 
L 3866 213 
Q 3469 63 3072 -14 
Q 2675 -91 2278 -91 
Q 1328 -91 801 392 
Q 275 875 275 1747 
Q 275 2603 792 3093 
Q 1309 3584 2216 3584 
Q 3041 3584 3536 3087 
Q 4031 2591 4031 1759 
z
M 2881 2131 
Q 2881 2450 2695 2645 
Q 2509 2841 2209 2841 
Q 1884 2841 1681 2658 
Q 1478 2475 1428 2131 
L 2881 2131 
z
" transform="scale(0.015625)"/>
      <path id="DejaVuSans-Bold-75" d="M 500 1363 
L 500 3500 
L 1625 3500 
L 1625 3150 
Q 1625 2866 1622 2436 
Q 1619 2006 1619 1863 
Q 1619 1441 1641 1255 
Q 1663 1069 1716 984 
Q 1784 875 1895 815 
Q 2006 756 2150 756 
Q 2500 756 2700 1025 
Q 2900 1294 2900 1772 
L 2900 3500 
L 4019 3500 
L 4019 0 
L 2900 0 
L 2900 506 
Q 2647 200 2364 54 
Q 2081 -91 1741 -91 
Q 1134 -91 817 281 
Q 500 653 500 1363 
z
" transform="scale(0.015625)"/>
      <path id="DejaVuSans-Bold-6d" d="M 3781 2919 
Q 3994 3244 4286 3414 
Q 4578 3584 4928 3584 
Q 5531 3584 5847 3212 
Q 6163 2841 6163 2131 
L 6163 0 
L 5038 0 
L 5038 1825 
Q 5041 1866 5042 1909 
Q 5044 1953 5044 2034 
Q 5044 2406 4934 2573 
Q 4825 2741 4581 2741 
Q 4263 2741 4089 2478 
Q 3916 2216 3909 1719 
L 3909 0 
L 2784 0 
L 2784 1825 
Q 2784 2406 2684 2573 
Q 2584 2741 2328 2741 
Q 2006 2741 1831 2477 
Q 1656 2213 1656 1722 
L 1656 0 
L 531 0 
L 531 3500 
L 1656 3500 
L 1656 2988 
Q 1863 3284 2130 3434 
Q 2397 3584 2719 3584 
Q 3081 3584 3359 3409 
Q 3638 3234 3781 2919 
z
" transform="scale(0.015625)"/>
      <path id="DejaVuSans-Bold-72" d="M 3138 2547 
Q 2991 2616 2845 2648 
Q 2700 2681 2553 2681 
Q 2122 2681 1889 2404 
Q 1656 2128 1656 1613 
L 1656 0 
L 538 0 
L 538 3500 
L 1656 3500 
L 1656 2925 
Q 1872 3269 2151 3426 
Q 2431 3584 2822 3584 
Q 2878 3584 2943 3579 
Q 3009 3575 3134 3559 
L 3138 2547 
z
" transform="scale(0.015625)"/>
      <path id="DejaVuSans-Bold-79" d="M 78 3500 
L 1197 3500 
L 2138 1125 
L 2938 3500 
L 4056 3500 
L 2584 -331 
Q 2363 -916 2067 -1148 
Q 1772 -1381 1288 -1381 
L 641 -1381 
L 641 -647 
L 991 -647 
Q 1275 -647 1404 -556 
Q 1534 -466 1606 -231 
L 1638 -134 
L 78 3500 
z
" transform="scale(0.015625)"/>
      <path id="DejaVuSans-Bold-2c" d="M 653 1209 
L 1778 1209 
L 1778 256 
L 1006 -909 
L 341 -909 
L 653 256 
L 653 1209 
z
" transform="scale(0.015625)"/>
      <path id="DejaVuSans-Bold-37" d="M 428 4666 
L 3944 4666 
L 3944 3988 
L 2125 0 
L 953 0 
L 2675 3781 
L 428 3781 
L 428 4666 
z
" transform="scale(0.015625)"/>
      <path id="DejaVuSans-Bold-36" d="M 2316 2303 
Q 2000 2303 1842 2098 
Q 1684 1894 1684 1484 
Q 1684 1075 1842 870 
Q 2000 666 2316 666 
Q 2634 666 2792 870 
Q 2950 1075 2950 1484 
Q 2950 1894 2792 2098 
Q 2634 2303 2316 2303 
z
M 3803 4544 
L 3803 3681 
Q 3506 3822 3243 3889 
Q 2981 3956 2731 3956 
Q 2194 3956 1894 3657 
Q 1594 3359 1544 2772 
Q 1750 2925 1990 3001 
Q 2231 3078 2516 3078 
Q 3231 3078 3670 2659 
Q 4109 2241 4109 1563 
Q 4109 813 3618 361 
Q 3128 -91 2303 -91 
Q 1394 -91 895 523 
Q 397 1138 397 2266 
Q 397 3422 980 4083 
Q 1563 4744 2578 4744 
Q 2900 4744 3203 4694 
Q 3506 4644 3803 4544 
z
" transform="scale(0.015625)"/>
      <path id="DejaVuSans-Bold-2e" d="M 653 1209 
L 1778 1209 
L 1778 0 
L 653 0 
L 653 1209 
z
" transform="scale(0.015625)"/>
      <path id="DejaVuSans-Bold-25" d="M 4959 1925 
Q 4738 1925 4616 1733 
Q 4494 1541 4494 1184 
Q 4494 825 4614 633 
Q 4734 441 4959 441 
Q 5184 441 5303 633 
Q 5422 825 5422 1184 
Q 5422 1541 5301 1733 
Q 5181 1925 4959 1925 
z
M 4959 2450 
Q 5541 2450 5875 2112 
Q 6209 1775 6209 1184 
Q 6209 594 5875 251 
Q 5541 -91 4959 -91 
Q 4378 -91 4042 251 
Q 3706 594 3706 1184 
Q 3706 1772 4042 2111 
Q 4378 2450 4959 2450 
z
M 2094 -91 
L 1403 -91 
L 4319 4750 
L 5013 4750 
L 2094 -91 
z
M 1453 4750 
Q 2034 4750 2367 4411 
Q 2700 4072 2700 3481 
Q 2700 2891 2367 2550 
Q 2034 2209 1453 2209 
Q 872 2209 539 2550 
Q 206 2891 206 3481 
Q 206 4072 539 4411 
Q 872 4750 1453 4750 
z
M 1453 4225 
Q 1228 4225 1106 4031 
Q 984 3838 984 3481 
Q 984 3122 1106 2926 
Q 1228 2731 1453 2731 
Q 1678 2731 1798 2926 
Q 1919 3122 1919 3481 
Q 1919 3838 1797 4031 
Q 1675 4225 1453 4225 
z
" transform="scale(0.015625)"/>
      <path id="DejaVuSans-Bold-76" d="M 97 3500 
L 1216 3500 
L 2088 1081 
L 2956 3500 
L 4078 3500 
L 2700 0 
L 1472 0 
L 97 3500 
z
" transform="scale(0.015625)"/>
      <path id="DejaVuSans-Bold-6e" d="M 4056 2131 
L 4056 0 
L 2931 0 
L 2931 347 
L 2931 1631 
Q 2931 2084 2911 2256 
Q 2891 2428 2841 2509 
Q 2775 2619 2662 2680 
Q 2550 2741 2406 2741 
Q 2056 2741 1856 2470 
Q 1656 2200 1656 1722 
L 1656 0 
L 538 0 
L 538 3500 
L 1656 3500 
L 1656 2988 
Q 1909 3294 2193 3439 
Q 2478 3584 2822 3584 
Q 3428 3584 3742 3212 
Q 4056 2841 4056 2131 
z
" transform="scale(0.015625)"/>
      <path id="DejaVuSans-Bold-63" d="M 3366 3391 
L 3366 2478 
Q 3138 2634 2908 2709 
Q 2678 2784 2431 2784 
Q 1963 2784 1702 2511 
Q 1441 2238 1441 1747 
Q 1441 1256 1702 982 
Q 1963 709 2431 709 
Q 2694 709 2930 787 
Q 3166 866 3366 1019 
L 3366 103 
Q 3103 6 2833 -42 
Q 2563 -91 2291 -91 
Q 1344 -91 809 395 
Q 275 881 275 1747 
Q 275 2613 809 3098 
Q 1344 3584 2291 3584 
Q 2566 3584 2833 3536 
Q 3100 3488 3366 3391 
z
" transform="scale(0.015625)"/>
      <path id="DejaVuSans-Bold-78" d="M 1422 1791 
L 159 3500 
L 1344 3500 
L 2059 2463 
L 2784 3500 
L 3969 3500 
L 2706 1797 
L 4031 0 
L 2847 0 
L 2059 1106 
L 1281 0 
L 97 0 
L 1422 1791 
z
" transform="scale(0.015625)"/>
      <path id="DejaVuSans-Bold-70" d="M 1656 506 
L 1656 -1331 
L 538 -1331 
L 538 3500 
L 1656 3500 
L 1656 2988 
Q 1888 3294 2169 3439 
Q 2450 3584 2816 3584 
Q 3463 3584 3878 3070 
Q 4294 2556 4294 1747 
Q 4294 938 3878 423 
Q 3463 -91 2816 -91 
Q 2450 -91 2169 54 
Q 1888 200 1656 506 
z
M 2400 2772 
Q 2041 2772 1848 2508 
Q 1656 2244 1656 1747 
Q 1656 1250 1848 986 
Q 2041 722 2400 722 
Q 2759 722 2948 984 
Q 3138 1247 3138 1747 
Q 3138 2247 2948 2509 
Q 2759 2772 2400 2772 
z
" transform="scale(0.015625)"/>
      <path id="DejaVuSans-Bold-6c" d="M 538 4863 
L 1656 4863 
L 1656 0 
L 538 0 
L 538 4863 
z
" transform="scale(0.015625)"/>
      <path id="DejaVuSans-Bold-64" d="M 2919 2988 
L 2919 4863 
L 4044 4863 
L 4044 0 
L 2919 0 
L 2919 506 
Q 2688 197 2409 53 
Q 2131 -91 1766 -91 
Q 1119 -91 703 423 
Q 288 938 288 1747 
Q 288 2556 703 3070 
Q 1119 3584 1766 3584 
Q 2128 3584 2408 3439 
Q 2688 3294 2919 2988 
z
M 2181 722 
Q 2541 722 2730 984 
Q 2919 1247 2919 1747 
Q 2919 2247 2730 2509 
Q 2541 2772 2181 2772 
Q 1825 2772 1636 2509 
Q 1447 2247 1447 1747 
Q 1447 1247 1636 984 
Q 1825 722 2181 722 
z
" transform="scale(0.015625)"/>
     </defs>
     <use xlink:href="#DejaVuSans-Bold-53"/>
     <use xlink:href="#DejaVuSans-Bold-6b" x="72.021484"/>
     <use xlink:href="#DejaVuSans-Bold-69" x="138.525391"/>
     <use xlink:href="#DejaVuSans-Bold-20" x="172.802734"/>
     <use xlink:href="#DejaVuSans-Bold-73" x="207.617188"/>
     <use xlink:href="#DejaVuSans-Bold-74" x="267.138672"/>
     <use xlink:href="#DejaVuSans-Bold-61" x="314.941406"/>
     <use xlink:href="#DejaVuSans-Bold-74" x="382.421875"/>
     <use xlink:href="#DejaVuSans-Bold-65" x="430.224609"/>
     <use xlink:href="#DejaVuSans-Bold-73" x="498.046875"/>
     <use xlink:href="#DejaVuSans-Bold-20" x="557.568359"/>
     <use xlink:href="#DejaVuSans-Bold-73" x="592.382812"/>
     <use xlink:href="#DejaVuSans-Bold-75" x="651.904297"/>
     <use xlink:href="#DejaVuSans-Bold-6d" x="723.095703"/>
     <use xlink:href="#DejaVuSans-Bold-6d" x="827.294922"/>
     <use xlink:href="#DejaVuSans-Bold-61" x="931.494141"/>
     <use xlink:href="#DejaVuSans-Bold-72" x="998.974609"/>
     <use xlink:href="#DejaVuSans-Bold-79" x="1048.291016"/>
     <use xlink:href="#DejaVuSans-Bold-20" x="1113.476562"/>
     <use xlink:href="#DejaVuSans-Bold-50" x="1148.291016"/>
     <use xlink:href="#DejaVuSans-Bold-43" x="1221.582031"/>
     <use xlink:href="#DejaVuSans-Bold-41" x="1294.970703"/>
     <use xlink:href="#DejaVuSans-Bold-2c" x="1374.238281"/>
     <use xlink:href="#DejaVuSans-Bold-20" x="1412.226562"/>
     <use xlink:href="#DejaVuSans-Bold-37" x="1447.041016"/>
     <use xlink:href="#DejaVuSans-Bold-36" x="1516.621094"/>
     <use xlink:href="#DejaVuSans-Bold-2e" x="1586.201172"/>
     <use xlink:href="#DejaVuSans-Bold-32" x="1624.189453"/>
     <use xlink:href="#DejaVuSans-Bold-25" x="1693.769531"/>
     <use xlink:href="#DejaVuSans-Bold-20" x="1793.964844"/>
     <use xlink:href="#DejaVuSans-Bold-76" x="1828.779297"/>
     <use xlink:href="#DejaVuSans-Bold-61" x="1893.964844"/>
     <use xlink:href="#DejaVuSans-Bold-72" x="1961.445312"/>
     <use xlink:href="#DejaVuSans-Bold-69" x="2010.761719"/>
     <use xlink:href="#DejaVuSans-Bold-61" x="2045.039062"/>
     <use xlink:href="#DejaVuSans-Bold-6e" x="2112.519531"/>
     <use xlink:href="#DejaVuSans-Bold-63" x="2183.710938"/>
     <use xlink:href="#DejaVuSans-Bold-65" x="2242.988281"/>
     <use xlink:href="#DejaVuSans-Bold-20" x="2310.810547"/>
     <use xlink:href="#DejaVuSans-Bold-65" x="2345.625"/>
     <use xlink:href="#DejaVuSans-Bold-78" x="2413.447266"/>
     <use xlink:href="#DejaVuSans-Bold-70" x="2477.949219"/>
     <use xlink:href="#DejaVuSans-Bold-6c" x="2549.53125"/>
     <use xlink:href="#DejaVuSans-Bold-61" x="2583.808594"/>
     <use xlink:href="#DejaVuSans-Bold-69" x="2651.289062"/>
     <use xlink:href="#DejaVuSans-Bold-6e" x="2685.566406"/>
     <use xlink:href="#DejaVuSans-Bold-65" x="2756.757812"/>
     <use xlink:href="#DejaVuSans-Bold-64" x="2824.580078"/>
    </g>
   </g>
   <g id="legend_1">
    <g id="patch_7">
     <path d="M 442.548314 208.8575 
L 556.451439 208.8575 
Q 558.451439 208.8575 558.451439 206.8575 
L 558.451439 31.72 
Q 558.451439 29.72 556.451439 29.72 
L 442.548314 29.72 
Q 440.548314 29.72 440.548314 31.72 
L 440.548314 206.8575 
Q 440.548314 208.8575 442.548314 208.8575 
z
" style="fill: #eeeeee; opacity: 0.8; stroke: #cccccc; stroke-width: 0.5; stroke-linejoin: miter"/>
    </g>
    <g id="line2d_43"/>
    <g id="text_54">
     <!-- Quartile -->
     <g transform="translate(472.548314 41.318437) scale(0.1 -0.1)">
      <defs>
       <path id="DejaVuSans-Bold-51" d="M 2847 -84 
L 2753 -84 
Q 1600 -84 959 553 
Q 319 1191 319 2328 
Q 319 3463 958 4106 
Q 1597 4750 2719 4750 
Q 3853 4750 4486 4112 
Q 5119 3475 5119 2328 
Q 5119 1541 4783 972 
Q 4447 403 3816 116 
L 4756 -934 
L 3609 -934 
L 2847 -84 
z
M 2719 3878 
Q 2169 3878 1866 3472 
Q 1563 3066 1563 2328 
Q 1563 1578 1859 1179 
Q 2156 781 2719 781 
Q 3272 781 3575 1187 
Q 3878 1594 3878 2328 
Q 3878 3066 3575 3472 
Q 3272 3878 2719 3878 
z
" transform="scale(0.015625)"/>
      </defs>
      <use xlink:href="#DejaVuSans-Bold-51"/>
      <use xlink:href="#DejaVuSans-Bold-75" x="85.009766"/>
      <use xlink:href="#DejaVuSans-Bold-61" x="156.201172"/>
      <use xlink:href="#DejaVuSans-Bold-72" x="223.681641"/>
      <use xlink:href="#DejaVuSans-Bold-74" x="272.998047"/>
      <use xlink:href="#DejaVuSans-Bold-69" x="320.800781"/>
      <use xlink:href="#DejaVuSans-Bold-6c" x="355.078125"/>
      <use xlink:href="#DejaVuSans-Bold-65" x="389.355469"/>
     </g>
    </g>
    <g id="line2d_44">
     <defs>
      <path id="md2b1725207" d="M 0 3 
C 0.795609 3 1.55874 2.683901 2.12132 2.12132 
C 2.683901 1.55874 3 0.795609 3 0 
C 3 -0.795609 2.683901 -1.55874 2.12132 -2.12132 
C 1.55874 -2.683901 0.795609 -3 0 -3 
C -0.795609 -3 -1.55874 -2.683901 -2.12132 -2.12132 
C -2.683901 -1.55874 -3 -0.795609 -3 0 
C -3 0.795609 -2.683901 1.55874 -2.12132 2.12132 
C -1.55874 2.683901 -0.795609 3 0 3 
z
" style="stroke: #ffffff; stroke-width: 0.398981"/>
     </defs>
     <g>
      <use xlink:href="#md2b1725207" x="454.548314" y="52.496562" style="fill: #254928; stroke: #ffffff; stroke-width: 0.398981"/>
     </g>
    </g>
    <g id="text_55">
     <!-- (41.6, 53.1] -->
     <g transform="translate(472.548314 55.996562) scale(0.1 -0.1)">
      <defs>
       <path id="DejaVuSans-Bold-28" d="M 2413 -844 
L 1484 -844 
Q 1006 -72 778 623 
Q 550 1319 550 2003 
Q 550 2688 779 3389 
Q 1009 4091 1484 4856 
L 2413 4856 
Q 2013 4116 1813 3408 
Q 1613 2700 1613 2009 
Q 1613 1319 1811 609 
Q 2009 -100 2413 -844 
z
" transform="scale(0.015625)"/>
       <path id="DejaVuSans-Bold-5d" d="M 2375 -844 
L 434 -844 
L 434 -141 
L 1313 -141 
L 1313 4159 
L 434 4159 
L 434 4863 
L 2375 4863 
L 2375 -844 
z
" transform="scale(0.015625)"/>
      </defs>
      <use xlink:href="#DejaVuSans-Bold-28"/>
      <use xlink:href="#DejaVuSans-Bold-34" x="45.703125"/>
      <use xlink:href="#DejaVuSans-Bold-31" x="115.283203"/>
      <use xlink:href="#DejaVuSans-Bold-2e" x="184.863281"/>
      <use xlink:href="#DejaVuSans-Bold-36" x="222.851562"/>
      <use xlink:href="#DejaVuSans-Bold-2c" x="292.431641"/>
      <use xlink:href="#DejaVuSans-Bold-20" x="330.419922"/>
      <use xlink:href="#DejaVuSans-Bold-35" x="365.234375"/>
      <use xlink:href="#DejaVuSans-Bold-33" x="434.814453"/>
      <use xlink:href="#DejaVuSans-Bold-2e" x="504.394531"/>
      <use xlink:href="#DejaVuSans-Bold-31" x="542.382812"/>
      <use xlink:href="#DejaVuSans-Bold-5d" x="611.962891"/>
     </g>
    </g>
    <g id="line2d_45">
     <defs>
      <path id="m50fe1c5d68" d="M 0 3 
C 0.795609 3 1.55874 2.683901 2.12132 2.12132 
C 2.683901 1.55874 3 0.795609 3 0 
C 3 -0.795609 2.683901 -1.55874 2.12132 -2.12132 
C 1.55874 -2.683901 0.795609 -3 0 -3 
C -0.795609 -3 -1.55874 -2.683901 -2.12132 -2.12132 
C -2.683901 -1.55874 -3 -0.795609 -3 0 
C -3 0.795609 -2.683901 1.55874 -2.12132 2.12132 
C -1.55874 2.683901 -0.795609 3 0 3 
z
" style="stroke: #ffffff; stroke-width: 0.398981"/>
     </defs>
     <g>
      <use xlink:href="#m50fe1c5d68" x="454.548314" y="67.174687" style="fill: #b0b2b8; stroke: #ffffff; stroke-width: 0.398981"/>
     </g>
    </g>
    <g id="text_56">
     <!-- (53.1, 60.4] -->
     <g transform="translate(472.548314 70.674687) scale(0.1 -0.1)">
      <use xlink:href="#DejaVuSans-Bold-28"/>
      <use xlink:href="#DejaVuSans-Bold-35" x="45.703125"/>
      <use xlink:href="#DejaVuSans-Bold-33" x="115.283203"/>
      <use xlink:href="#DejaVuSans-Bold-2e" x="184.863281"/>
      <use xlink:href="#DejaVuSans-Bold-31" x="222.851562"/>
      <use xlink:href="#DejaVuSans-Bold-2c" x="292.431641"/>
      <use xlink:href="#DejaVuSans-Bold-20" x="330.419922"/>
      <use xlink:href="#DejaVuSans-Bold-36" x="365.234375"/>
      <use xlink:href="#DejaVuSans-Bold-30" x="434.814453"/>
      <use xlink:href="#DejaVuSans-Bold-2e" x="504.394531"/>
      <use xlink:href="#DejaVuSans-Bold-34" x="542.382812"/>
      <use xlink:href="#DejaVuSans-Bold-5d" x="611.962891"/>
     </g>
    </g>
    <g id="line2d_46">
     <defs>
      <path id="m652a712ce7" d="M 0 3 
C 0.795609 3 1.55874 2.683901 2.12132 2.12132 
C 2.683901 1.55874 3 0.795609 3 0 
C 3 -0.795609 2.683901 -1.55874 2.12132 -2.12132 
C 1.55874 -2.683901 0.795609 -3 0 -3 
C -0.795609 -3 -1.55874 -2.683901 -2.12132 -2.12132 
C -2.683901 -1.55874 -3 -0.795609 -3 0 
C -3 0.795609 -2.683901 1.55874 -2.12132 2.12132 
C -1.55874 2.683901 -0.795609 3 0 3 
z
" style="stroke: #ffffff; stroke-width: 0.398981"/>
     </defs>
     <g>
      <use xlink:href="#m652a712ce7" x="454.548314" y="81.852812" style="fill: #76a8d9; stroke: #ffffff; stroke-width: 0.398981"/>
     </g>
    </g>
    <g id="text_57">
     <!-- (60.4, 78.4] -->
     <g transform="translate(472.548314 85.352812) scale(0.1 -0.1)">
      <defs>
       <path id="DejaVuSans-Bold-38" d="M 2228 2088 
Q 1891 2088 1709 1903 
Q 1528 1719 1528 1375 
Q 1528 1031 1709 848 
Q 1891 666 2228 666 
Q 2563 666 2741 848 
Q 2919 1031 2919 1375 
Q 2919 1722 2741 1905 
Q 2563 2088 2228 2088 
z
M 1350 2484 
Q 925 2613 709 2878 
Q 494 3144 494 3541 
Q 494 4131 934 4440 
Q 1375 4750 2228 4750 
Q 3075 4750 3515 4442 
Q 3956 4134 3956 3541 
Q 3956 3144 3739 2878 
Q 3522 2613 3097 2484 
Q 3572 2353 3814 2058 
Q 4056 1763 4056 1313 
Q 4056 619 3595 264 
Q 3134 -91 2228 -91 
Q 1319 -91 855 264 
Q 391 619 391 1313 
Q 391 1763 633 2058 
Q 875 2353 1350 2484 
z
M 1631 3419 
Q 1631 3141 1786 2991 
Q 1941 2841 2228 2841 
Q 2509 2841 2662 2991 
Q 2816 3141 2816 3419 
Q 2816 3697 2662 3845 
Q 2509 3994 2228 3994 
Q 1941 3994 1786 3844 
Q 1631 3694 1631 3419 
z
" transform="scale(0.015625)"/>
      </defs>
      <use xlink:href="#DejaVuSans-Bold-28"/>
      <use xlink:href="#DejaVuSans-Bold-36" x="45.703125"/>
      <use xlink:href="#DejaVuSans-Bold-30" x="115.283203"/>
      <use xlink:href="#DejaVuSans-Bold-2e" x="184.863281"/>
      <use xlink:href="#DejaVuSans-Bold-34" x="222.851562"/>
      <use xlink:href="#DejaVuSans-Bold-2c" x="292.431641"/>
      <use xlink:href="#DejaVuSans-Bold-20" x="330.419922"/>
      <use xlink:href="#DejaVuSans-Bold-37" x="365.234375"/>
      <use xlink:href="#DejaVuSans-Bold-38" x="434.814453"/>
      <use xlink:href="#DejaVuSans-Bold-2e" x="504.394531"/>
      <use xlink:href="#DejaVuSans-Bold-34" x="542.382812"/>
      <use xlink:href="#DejaVuSans-Bold-5d" x="611.962891"/>
     </g>
    </g>
    <g id="line2d_47">
     <defs>
      <path id="m3ea2746470" d="M 0 3 
C 0.795609 3 1.55874 2.683901 2.12132 2.12132 
C 2.683901 1.55874 3 0.795609 3 0 
C 3 -0.795609 2.683901 -1.55874 2.12132 -2.12132 
C 1.55874 -2.683901 0.795609 -3 0 -3 
C -0.795609 -3 -1.55874 -2.683901 -2.12132 -2.12132 
C -2.683901 -1.55874 -3 -0.795609 -3 0 
C -3 0.795609 -2.683901 1.55874 -2.12132 2.12132 
C -1.55874 2.683901 -0.795609 3 0 3 
z
" style="stroke: #ffffff; stroke-width: 0.398981"/>
     </defs>
     <g>
      <use xlink:href="#m3ea2746470" x="454.548314" y="96.530937" style="fill: #ffc857; stroke: #ffffff; stroke-width: 0.398981"/>
     </g>
    </g>
    <g id="text_58">
     <!-- (78.4, 93.0] -->
     <g transform="translate(472.548314 100.030937) scale(0.1 -0.1)">
      <defs>
       <path id="DejaVuSans-Bold-39" d="M 641 103 
L 641 966 
Q 928 831 1190 764 
Q 1453 697 1709 697 
Q 2247 697 2547 995 
Q 2847 1294 2900 1881 
Q 2688 1725 2447 1647 
Q 2206 1569 1925 1569 
Q 1209 1569 770 1986 
Q 331 2403 331 3084 
Q 331 3838 820 4291 
Q 1309 4744 2131 4744 
Q 3044 4744 3544 4128 
Q 4044 3513 4044 2388 
Q 4044 1231 3459 570 
Q 2875 -91 1856 -91 
Q 1528 -91 1228 -42 
Q 928 6 641 103 
z
M 2125 2350 
Q 2441 2350 2600 2554 
Q 2759 2759 2759 3169 
Q 2759 3575 2600 3781 
Q 2441 3988 2125 3988 
Q 1809 3988 1650 3781 
Q 1491 3575 1491 3169 
Q 1491 2759 1650 2554 
Q 1809 2350 2125 2350 
z
" transform="scale(0.015625)"/>
      </defs>
      <use xlink:href="#DejaVuSans-Bold-28"/>
      <use xlink:href="#DejaVuSans-Bold-37" x="45.703125"/>
      <use xlink:href="#DejaVuSans-Bold-38" x="115.283203"/>
      <use xlink:href="#DejaVuSans-Bold-2e" x="184.863281"/>
      <use xlink:href="#DejaVuSans-Bold-34" x="222.851562"/>
      <use xlink:href="#DejaVuSans-Bold-2c" x="292.431641"/>
      <use xlink:href="#DejaVuSans-Bold-20" x="330.419922"/>
      <use xlink:href="#DejaVuSans-Bold-39" x="365.234375"/>
      <use xlink:href="#DejaVuSans-Bold-33" x="434.814453"/>
      <use xlink:href="#DejaVuSans-Bold-2e" x="504.394531"/>
      <use xlink:href="#DejaVuSans-Bold-30" x="542.382812"/>
      <use xlink:href="#DejaVuSans-Bold-5d" x="611.962891"/>
     </g>
    </g>
    <g id="line2d_48">
     <defs>
      <path id="md60f7d9e5d" d="M 0 3 
C 0.795609 3 1.55874 2.683901 2.12132 2.12132 
C 2.683901 1.55874 3 0.795609 3 0 
C 3 -0.795609 2.683901 -1.55874 2.12132 -2.12132 
C 1.55874 -2.683901 0.795609 -3 0 -3 
C -0.795609 -3 -1.55874 -2.683901 -2.12132 -2.12132 
C -2.683901 -1.55874 -3 -0.795609 -3 0 
C -3 0.795609 -2.683901 1.55874 -2.12132 2.12132 
C -1.55874 2.683901 -0.795609 3 0 3 
z
" style="stroke: #ffffff; stroke-width: 0.398981"/>
     </defs>
     <g>
      <use xlink:href="#md60f7d9e5d" x="454.548314" y="111.209062" style="fill: #4f301f; stroke: #ffffff; stroke-width: 0.398981"/>
     </g>
    </g>
    <g id="text_59">
     <!-- NA -->
     <g transform="translate(472.548314 114.709062) scale(0.1 -0.1)">
      <use xlink:href="#DejaVuSans-Bold-4e"/>
      <use xlink:href="#DejaVuSans-Bold-41" x="83.691406"/>
     </g>
    </g>
    <g id="line2d_49"/>
    <g id="text_60">
     <!-- AdultWeekend -->
     <g transform="translate(472.548314 129.387187) scale(0.1 -0.1)">
      <use xlink:href="#DejaVuSans-Bold-41"/>
      <use xlink:href="#DejaVuSans-Bold-64" x="77.392578"/>
      <use xlink:href="#DejaVuSans-Bold-75" x="148.974609"/>
      <use xlink:href="#DejaVuSans-Bold-6c" x="220.166016"/>
      <use xlink:href="#DejaVuSans-Bold-74" x="254.443359"/>
      <use xlink:href="#DejaVuSans-Bold-57" x="302.246094"/>
      <use xlink:href="#DejaVuSans-Bold-65" x="408.923828"/>
      <use xlink:href="#DejaVuSans-Bold-65" x="476.746094"/>
      <use xlink:href="#DejaVuSans-Bold-6b" x="544.568359"/>
      <use xlink:href="#DejaVuSans-Bold-65" x="608.447266"/>
      <use xlink:href="#DejaVuSans-Bold-6e" x="676.269531"/>
      <use xlink:href="#DejaVuSans-Bold-64" x="747.460938"/>
     </g>
    </g>
    <g id="line2d_50">
     <defs>
      <path id="mc832b73977" d="M 0 2.586805 
C 0.686029 2.586805 1.344052 2.314243 1.829147 1.829147 
C 2.314243 1.344052 2.586805 0.686029 2.586805 0 
C 2.586805 -0.686029 2.314243 -1.344052 1.829147 -1.829147 
C 1.344052 -2.314243 0.686029 -2.586805 0 -2.586805 
C -0.686029 -2.586805 -1.344052 -2.314243 -1.829147 -1.829147 
C -2.314243 -1.344052 -2.586805 -0.686029 -2.586805 0 
C -2.586805 0.686029 -2.314243 1.344052 -1.829147 1.829147 
C -1.344052 2.314243 -0.686029 2.586805 0 2.586805 
z
" style="stroke: #ffffff; stroke-width: 0.398981"/>
     </defs>
     <g>
      <use xlink:href="#mc832b73977" x="454.548314" y="140.565312" style="fill: #333333; stroke: #ffffff; stroke-width: 0.398981"/>
     </g>
    </g>
    <g id="text_61">
     <!-- 50 -->
     <g transform="translate(472.548314 144.065312) scale(0.1 -0.1)">
      <use xlink:href="#DejaVuSans-Bold-35"/>
      <use xlink:href="#DejaVuSans-Bold-30" x="69.580078"/>
     </g>
    </g>
    <g id="line2d_51">
     <defs>
      <path id="m1b7f8313b6" d="M 0 3.053101 
C 0.809692 3.053101 1.58633 2.731407 2.158869 2.158869 
C 2.731407 1.58633 3.053101 0.809692 3.053101 0 
C 3.053101 -0.809692 2.731407 -1.58633 2.158869 -2.158869 
C 1.58633 -2.731407 0.809692 -3.053101 0 -3.053101 
C -0.809692 -3.053101 -1.58633 -2.731407 -2.158869 -2.158869 
C -2.731407 -1.58633 -3.053101 -0.809692 -3.053101 0 
C -3.053101 0.809692 -2.731407 1.58633 -2.158869 2.158869 
C -1.58633 2.731407 -0.809692 3.053101 0 3.053101 
z
" style="stroke: #ffffff; stroke-width: 0.398981"/>
     </defs>
     <g>
      <use xlink:href="#m1b7f8313b6" x="454.548314" y="155.243437" style="fill: #333333; stroke: #ffffff; stroke-width: 0.398981"/>
     </g>
    </g>
    <g id="text_62">
     <!-- 60 -->
     <g transform="translate(472.548314 158.743437) scale(0.1 -0.1)">
      <use xlink:href="#DejaVuSans-Bold-36"/>
      <use xlink:href="#DejaVuSans-Bold-30" x="69.580078"/>
     </g>
    </g>
    <g id="line2d_52">
     <defs>
      <path id="me877cce5d0" d="M 0 3.457065 
C 0.916824 3.457065 1.796221 3.092807 2.444514 2.444514 
C 3.092807 1.796221 3.457065 0.916824 3.457065 0 
C 3.457065 -0.916824 3.092807 -1.796221 2.444514 -2.444514 
C 1.796221 -3.092807 0.916824 -3.457065 0 -3.457065 
C -0.916824 -3.457065 -1.796221 -3.092807 -2.444514 -2.444514 
C -3.092807 -1.796221 -3.457065 -0.916824 -3.457065 0 
C -3.457065 0.916824 -3.092807 1.796221 -2.444514 2.444514 
C -1.796221 3.092807 -0.916824 3.457065 0 3.457065 
z
" style="stroke: #ffffff; stroke-width: 0.398981"/>
     </defs>
     <g>
      <use xlink:href="#me877cce5d0" x="454.548314" y="169.921562" style="fill: #333333; stroke: #ffffff; stroke-width: 0.398981"/>
     </g>
    </g>
    <g id="text_63">
     <!-- 70 -->
     <g transform="translate(472.548314 173.421562) scale(0.1 -0.1)">
      <use xlink:href="#DejaVuSans-Bold-37"/>
      <use xlink:href="#DejaVuSans-Bold-30" x="69.580078"/>
     </g>
    </g>
    <g id="line2d_53">
     <defs>
      <path id="mf0780bd425" d="M 0 3.81853 
C 1.012686 3.81853 1.984031 3.416185 2.700108 2.700108 
C 3.416185 1.984031 3.81853 1.012686 3.81853 0 
C 3.81853 -1.012686 3.416185 -1.984031 2.700108 -2.700108 
C 1.984031 -3.416185 1.012686 -3.81853 0 -3.81853 
C -1.012686 -3.81853 -1.984031 -3.416185 -2.700108 -2.700108 
C -3.416185 -1.984031 -3.81853 -1.012686 -3.81853 0 
C -3.81853 1.012686 -3.416185 1.984031 -2.700108 2.700108 
C -1.984031 3.416185 -1.012686 3.81853 0 3.81853 
z
" style="stroke: #ffffff; stroke-width: 0.398981"/>
     </defs>
     <g>
      <use xlink:href="#mf0780bd425" x="454.548314" y="184.599687" style="fill: #333333; stroke: #ffffff; stroke-width: 0.398981"/>
     </g>
    </g>
    <g id="text_64">
     <!-- 80 -->
     <g transform="translate(472.548314 188.099687) scale(0.1 -0.1)">
      <use xlink:href="#DejaVuSans-Bold-38"/>
      <use xlink:href="#DejaVuSans-Bold-30" x="69.580078"/>
     </g>
    </g>
    <g id="line2d_54">
     <defs>
      <path id="m891077721c" d="M 0 4.148619 
C 1.100227 4.148619 2.155539 3.711494 2.933517 2.933517 
C 3.711494 2.155539 4.148619 1.100227 4.148619 0 
C 4.148619 -1.100227 3.711494 -2.155539 2.933517 -2.933517 
C 2.155539 -3.711494 1.100227 -4.148619 0 -4.148619 
C -1.100227 -4.148619 -2.155539 -3.711494 -2.933517 -2.933517 
C -3.711494 -2.155539 -4.148619 -1.100227 -4.148619 0 
C -4.148619 1.100227 -3.711494 2.155539 -2.933517 2.933517 
C -2.155539 3.711494 -1.100227 4.148619 0 4.148619 
z
" style="stroke: #ffffff; stroke-width: 0.398981"/>
     </defs>
     <g>
      <use xlink:href="#m891077721c" x="454.548314" y="199.277812" style="fill: #333333; stroke: #ffffff; stroke-width: 0.398981"/>
     </g>
    </g>
    <g id="text_65">
     <!-- 90 -->
     <g transform="translate(472.548314 202.777812) scale(0.1 -0.1)">
      <use xlink:href="#DejaVuSans-Bold-39"/>
      <use xlink:href="#DejaVuSans-Bold-30" x="69.580078"/>
     </g>
    </g>
   </g>
  </g>
 </g>
 <defs>
  <clipPath id="p8963e61d3a">
   <rect x="38.28" y="24.72" width="525.171439" height="804.42"/>
  </clipPath>
 </defs>
</svg>
